<svg xmlns="http://www.w3.org/2000/svg" xmlns:xlink="http://www.w3.org/1999/xlink" viewBox="0 0 900 600"><style>
@keyframes a0_o { 0% { opacity: 1; } 26.667% { opacity: 0; } 60% { opacity: 0; } 86.667% { opacity: 1; } 100% { opacity: 1; } }
</style><defs><symbol id="Symbol-3" preserveAspectRatio="none" width="4680" height="3120" viewBox="0 0 4680 3120" overflow="visible"><g data-name="10"><rect data-name="10" class="cls-1" width="4680" height="3120" fill="#fff"/><path class="cls-2" d="M3122.8 2257.5c-338.7 281.8-839.9 363.4-1260.3 197.2c-25.4-10-50.6-20.9-75.5-32.4c-20.3-9.5-40.4-19.5-60.3-29.9c-109.3-57.4-211-129.4-298.4-212.9c-18.4-17.6-36.2-35.7-53.4-54.4c-90.2-98.2-161-210-203.5-331.3c-4.5-12.8-8.7-25.6-12.5-38.6c-22.4-75.2-33.1-153.4-31.9-231.9c1.1-67.7 5.9-127.9 13.9-181.7c2.6-17.1 5.5-33.5 8.7-49.4c27.2-133.9 93.2-261.1 212.9-345.2c108-75.8 239.1-112.4 364.2-158.2c20.3-7.4 40.5-15.1 60.3-23.2l5.9-2.4c224-92.9 364.4-326.8 607.1-379.8c40.9-8.8 82.6-13.9 124.4-15.2c10.4-0.3 20.8-0.5 31.3-0.4c3.8 0 7.6 .1 11.4 .2c5.2 .1 10.5 .3 15.8 .6c8.6 .3 17.1 .9 25.7 1.5c9.3 .8 18.6 1.6 27.8 2.7c172.8 19.4 330.7 92.5 463.4 199.6c10.2 8.3 20.2 16.7 30.1 25.3c36.7 32 71.2 66.4 103.2 103c.1 .1 .2 .2 .3 .3c57.2 65.5 106.9 137.2 148.1 213.8c4.5 8.4 8.9 16.8 13.2 25.3c46.4 91.5 80.4 188.6 99.8 287.2c2 9.9 3.9 19.9 5.5 29.9c1.3 7.6 2.5 15.2 3.6 22.9c.7 4.8 1.3 9.5 2 14.3c.6 4.7 1.2 9.6 1.8 14.5c40.8 348.4-92.6 705.8-384.6 948.6Z" fill="#e1e7ff"/><path class="cls-2" d="M1807.9 613.5c-6.8 4.2-13.8 8.1-20.9 11.7c-41.8 21.5-88.8 34.2-136.2 40.7c-45.9 6.3-93.7 6.9-137.8-6.5c-44.1-13.4-84-42.5-100.9-82.2c-29.5-69.7 13.7-154.4 66.8-208.9c5.8-5.9 11.7-11.4 17.6-16.6c32.3-27.9 69.6-49.5 110-63.4c75.1-25.8 188.8-45.6 261.2-5.3c130.4 72.4 34.6 272.6-59.8 330.5Z" fill="#e1e7ff"/><path class="cls-3" d="M3507.4 1308.8h-970v-926.1c10.3-0.3 20.8-0.4 31.2-0.3c3.8 0 7.6 .1 11.4 .1c5.2 .2 10.5 .4 15.8 .6c8.6 .4 17.2 .9 25.7 1.6c9.3 .7 18.6 1.6 27.8 2.6c172.8 19.4 330.7 92.5 463.4 199.7c10.2 8.2 20.3 16.6 30.2 25.3c31.7 27.7 61.9 57.2 90.2 88.4c.1 .1 .2 .2 .3 .3c57.2 65.5 106.9 137.2 148.1 213.9c4.5 8.3 8.9 16.7 13.2 25.2c46.4 91.5 80.4 188.6 99.8 287.2c2 9.9 3.9 19.9 5.5 29.9c1.3 7.6 2.5 15.2 3.6 22.9c.7 4.8 1.3 9.5 2 14.3c.6 4.7 1.2 9.6 1.8 14.4Z" fill="#b6c7ff"/><path class="cls-4" d="M3505.5 1294.3h-981.1v-926.1c10.4-0.3 20.8-0.5 31.3-0.4c3.8 0 7.6 .1 11.4 .2c5.2 .1 10.5 .3 15.8 .6c8.6 .3 17.1 .9 25.7 1.5c9.3 .8 18.6 1.6 27.8 2.7c172.8 19.4 330.7 92.5 463.4 199.6c10.2 8.3 20.2 16.7 30.1 25.3c101.8 88.7 187.3 197.6 251.6 317.1c4.5 8.4 8.9 16.8 13.2 25.3c46.4 91.5 80.4 188.6 99.8 287.1c2 10 3.9 20 5.5 30c1.3 7.6 2.5 15.2 3.6 22.9c.7 4.7 1.3 9.5 1.9 14.2Z" fill="#d1dbff"/><path class="cls-3" d="M3099.8 572.4h-544.1v-204.6c3.8 0 7.6 .1 11.4 .2c5.2 .1 10.5 .3 15.8 .6c8.6 .3 17.1 .9 25.7 1.5c9.3 .8 18.6 1.6 27.8 2.7c172.8 19.4 330.7 92.5 463.4 199.6Z" fill="#b6c7ff"/><path class="cls-3" d="M3381.5 914.8h-825.8v-317.1h574.2c101.8 88.7 187.3 197.6 251.6 317.1Z" fill="#b6c7ff"/><path class="cls-3" d="M3500 1257.2h-944.3v-317.1h839c46.3 91.4 80.3 188.6 99.8 287.1c2 10 3.8 20 5.5 30Z" fill="#b6c7ff"/><path class="cls-5" d="M3099.8 572.4h-516.9v-203.8c8.6 .3 17.1 .9 25.7 1.5c9.3 .8 18.6 1.6 27.8 2.7c172.8 19.4 330.7 92.5 463.4 199.6Z" fill="#f2f4ff"/><path class="cls-5" d="M3381.5 914.8h-798.6v-317.1h547c101.8 88.7 187.3 197.6 251.6 317.1Z" fill="#f2f4ff"/><path class="cls-5" d="M3500 1257.2h-917.1v-317.1h811.8c46.4 91.4 80.4 188.6 99.8 287.1c2 10 3.8 20 5.5 30Z" fill="#f2f4ff"/><rect class="cls-1" width="27.7" height="251" rx="9.4" fill="#fff" transform="translate(1206.4,-1620) rotate(42) translate(2697.5,634.5)"/><rect class="cls-1" width="27.7" height="251" rx="9.4" fill="#fff" transform="translate(1242,-1680.1) rotate(42) translate(2793.5,650.6)"/><rect class="cls-1" width="27.7" height="251" rx="9.4" fill="#fff" transform="translate(1481.9,-1700.5) rotate(42) translate(2940.1,952.7)"/><rect class="cls-1" width="27.7" height="251" rx="9.4" fill="#fff" transform="translate(1507,-1747.8) rotate(42) translate(3014.1,961.7)"/><rect class="cls-1" width="27.7" height="119.2" rx="7.3" fill="#fff" transform="translate(1021.2,-1687.6) rotate(42) translate(2692.9,425.6)"/><path class="cls-6" d="M1726.7 788.8c20.3-7.4 40.5-15.1 60.3-23.2v1656.6c-20.3-9.4-40.4-19.3-60.3-29.8c-109.3-57.4-211-129.4-298.4-212.9c-18.4-17.6-36.2-35.7-53.4-54.4c-90.2-98.2-161-210-203.5-331.3c-4.5-12.8-8.7-25.6-12.5-38.6c-22.4-75.2-33.1-153.4-31.9-231.9c1.1-67.7 5.9-127.9 13.9-181.7c2.6-17.1 5.5-33.6 8.7-49.4c27.2-133.9 93.2-261.1 212.9-345.2c108-75.8 239.1-112.4 364.2-158.2Z" fill="#ccd5ff"/><path class="cls-7" d="M1726.7 788.8v966.4h-567.8c-22.4-75.2-33.1-153.4-31.9-231.9c1.1-67.7 5.9-127.9 13.9-181.7c2.6-17.1 5.5-33.6 8.7-49.4c27.2-133.9 93.2-261.1 212.9-345.2c108-75.8 239.1-112.4 364.2-158.2Z" fill="#ecefff"/><path class="cls-7" d="M1375 1793.8v331.3c-90.2-98.2-161.1-210-203.6-331.3Z" fill="#ecefff"/><path class="cls-7" d="M1726.7 1793.8v598.6c-109.3-57.4-211-129.4-298.4-212.9v-385.7Z" fill="#ecefff"/><rect x="1667.2" y="1280.5" class="cls-8" width="37.8" height="260.4" rx="16" fill="#abbbf4"/><rect x="1658" y="1271.5" class="cls-6" width="37.8" height="260.4" rx="16" fill="#ccd5ff"/><rect x="1549.9" y="898.6" class="cls-1" width="25" height="777.5" rx="9.4" fill="#fff"/><rect x="1484.5" y="1208" class="cls-1" width="25" height="468.1" rx="9.4" fill="#fff"/><path class="cls-8" d="M1444.1 2194.3v-386.9h282.6v-13.6h-298.4v385.7l15.8 14.8Z" fill="#abbbf4"/><path class="cls-8" d="M1177 1809.2h198v-15.4h-203.6l5.6 15.5Z" fill="#abbbf4"/><path class="cls-8" d="M1797.6 761.2v1665l-10.6-4v-1656.6l10.6-4.4Z" fill="#abbbf4"/><path class="cls-2" d="M2040.7 2706.6c-72.8 4.5-143.8 16-209.4 41.5c-78 30.6 92.5 71.9 116.6 75.5c159.1 23.6 321.4 30.2 483.4 33.7c216.7 4.5 433.6 3.4 650.5-3.4c138.2-4.3 277.6-11.1 410.9-41.8c17.7-4 36.2-9 48.3-20.3c25.3-23.6 7.9-63-24.6-79.4c-65-32.6-180.2-17.2-253-16.3l-297 3.6l-598.3 7.3c-104.1 1.3-217.7-7.3-327.4-0.4Z" fill="#e1e7ff"/><path class="cls-9" d="M2096.9 1559.8c0 0-52.2-3.3-56.2 13.9c-3.9 17.2-10.6 73.4 9.9 79.3c20.5 6 58.9 2.7 58.9-4c0-6.6-12.6-89.2-12.6-89.2Z" fill="#367acc"/><path class="cls-10" d="M2110.7 1635.6c0 0-77.6-6.1-83.5 25.7c-5.9 31.8-15.7 135.6 14.7 146.6c30.5 11 87.4 4.9 87.4-7.3c0-12.2-18.6-165-18.6-165Z" fill="#6192de"/><path class="cls-11" d="M2286.4 961.6c0 0 17 32.4 74.7 11.2c57.7-21.1 107.3-51.4 111.2-64.7c4-13.3 6 5.2 15.9 13.2c9.9 7.9 95.2 44.3 130.9 70c10.4 7.6 22 13.2 32.5 20.6c10.8 7.6 21 16.1 30.6 25.3c25.9 25 43.7 55.3 62.1 85.9c6 9.9 12 19.9 16.8 30.4c1.9 4.1 5.2 10 4.8 14.7c-0.4 4.7-3.1 5.3-7.3 6.2c0 0-76 206.3-98.5 212.9c-22.5 6.6-327.6-23.8-373.7-39.7c-46-15.8-245.7-130.8-245.7-130.8c0 0 70.8-185 147.4-222.7c76.7-37.8 91.5-48.3 98.3-32.5Z" fill="#febd57"/><path class="cls-12" d="M2233.7 971.4c0 0-53.5 175.9-42.9 196.4c10.6 20.5 64.8 23.8 142.1 23.8c77.3 0 148.1-2.6 158.6-32.3c10.6-29.8 38.3-170.2 55.9-175.7c17.5-5.5 71.7 7.7 71.7 7.8c-4.2-1-11.5 22.2-12.9 25.4c-26 59.2-44 128.1-32.2 193c.8 5 2.2 10 4.3 14.7c1.9 3.7 7.5 8 6.9 11.4c-0.7 4.8-9.2 12.5-12.5 16.1c-6.2 6.7-13.6 12.9-22.3 15.7c-20.5 6.6-339.1-33-366.2-48.9c-27.1-15.9-23.2-93.9-8-134.9c15.2-40.9 57.5-112.5 57.5-112.5Z" fill="#ff8c3e"/><path class="cls-13" d="M2742.1 2563.2c-9.3 11.3-119 21.2-119 21.2c0 0-4-13.3-10.6-35.1c-24.5-82.4-84.8-286-100.5-352.9c-19.8-84.6-58.7-276.6-127-345.9c-9.8-9.9-26.3 200.5-36.3 266.6c-9.9 66-12.5 208.2-9.2 291.5c3.3 83.3-30.4 179.8-30.4 179.8l-145.4 13.8l-3.7-36.7c-11-111.4-43.2-441-42.6-481.5c.6-48.9-17.2-385.4-27.1-496.4c-2.2-24.6-1.9-52.1-0.2-80.5c1.3-21 3.3-42.4 5.8-63.6c9.2-79 23.8-153.8 22.3-182.8c-2.4-47.3 69.9-266.6 69.9-266.6c2.4-7.5 54.9-38.5 45.6-22.7c-9.3 15.8-81.3 190.5-50.9 219.6c30.4 29.1 298.8 16.5 310 10.5c11.2-5.9 39.7-213.5 62.8-231.3c23.2-17.8 41-2.7 56.2 5.9c14.6 8.3 7.8 14.7 7.3 15.2c-71.4 38.4-60.1 222.1-50.9 237.3c9.3 15.2 17.9 5.3 17.9 5.3l29.7 113.7l89.9 73.4c0 0 4.1 34 9.6 79c2.7 22 5.7 46.7 8.8 71.4c8.1 64.5-24.5 131-21.1 147.8c7.2 36.3 9 159.1 8.4 244.4c-0.7 85.2 9 145.9 15.8 267.7c6.2 111 24.1 320.7 14.9 331.9Z" fill="#1a4ea2"/><path class="cls-14" d="M2744.1 2381.5c-4.4-103.6-14-206.8-18.3-310.3c-4.2-99.5-0.8-199.2-1.4-298.8c-0.2-33.5 15.5-73.4 11-106.6c-4.2-31.2-7.3-63-11.2-94.4l-316.8 36.4c0 1 .1 3.6 .4 7.5l-314.9-3.6l.6 15.6c0 0 170.9 12.4 223.5 7.8c52.7-4.5 92.7 6.6 94.2 21.2c6.2 61.5 19.3 160 36.4 168c24.3 11.3 59.4-0.8 98.8 9c90.9 22.5 74.4 142.5 116.2 373.7c39.1 216.8 33.6 300.8-50 342.3c6.5 21.8 10.5 35.1 10.5 35.1c0 0 109.7-9.9 119-21.1c3.1-3.8 3.7-8.8 4.6-13.5c10.1-53.2-0.3-114.7-2.6-168.3Z" fill="#20307b"/><path class="cls-15" d="M2478.2 833.2c-11.6 24.5-4.5 92.4-4.5 92.4c0 0-16.8 19.4-74.4 51.1c-57.5 31.7-113.7 11-113.7 7.8c0-3.3 2.5-65.3 2.5-65.3c-35.5-13-47.8-87.3-46.5-110.6c1.2-23.3 .6-37.5 0-71.1c-0.2-7.8 .3-15.6 1.6-23.3c2.9-17.3 8.7-25.2 8.7-25.2l166.3 8.9l3.7 .1c0 0 87.3 57.6 89.3 90.6c1.9 32.9-33 44.6-33 44.6Z" fill="#ffc890"/><path class="cls-16" d="M2441.2 800c-5.5-14-7.8-29.1-12.2-43.6c-4.5-14.4-11.5-28.8-24-37.4c-10.3-7.1-23.2-9.4-35.7-10.7c-42-4.4-84.2 .6-126.1 5.9c2.9-17.3 8.7-25.2 8.7-25.2l166.3 8.9c.1 .1 .2 .2 .2 .4c4.1 5.9 7.6 12.1 9.3 19c1.6 6.3 1.4 13 2 19.5c2 21.4 12.7 41.8 11.5 63.2Z" fill="#ff8c5a"/><path class="cls-17" d="M2456.2 771.8c0 0-6 3.8-8.4 35.5c-2.5 31.7-19.4-80.6-28.4-95.2c-9.1-14.7 33.6 5.4 36.8 22.8c3.3 17.5 0 36.9 0 36.9Z" fill="#361029"/><path class="cls-10" d="M2406.5 712c0 0 29.7 28 49.7 59.8c0 0 37.5-35 55 16.8c0 0 14.3-43.3 6.5-67.9c-7.7-24.6-91.2-113.8-138.4-118.3c-47.2-4.6-77.6 21.3-77.6 21.3c0 0 84.1 79.7 104.8 88.4Z" fill="#6192de"/><path class="cls-16" d="M2288.1 919.2c0 0 21.4 7.7 69.9 0c48.5-7.8 73-33 82.1-54.3c9-21.4 12.3 5.8-2.6 33.6c-14.9 27.8-90.5 54.9-149.4 41.4Z" fill="#ff8c5a"/><path class="cls-18" d="M2243.6 712c0 0-97-89-60.2-112.9c36.8-23.9 89.9-12.3 130 24c40 36.2 93.1 89 93.1 89c0 0-145.4-25.5-162.9-0.1Z" fill="#4d87db"/><path class="cls-16" d="M2492.3 781.5c1.4 1.7 2.2 3.8 2.5 6c1.6 8.5-0.8 22.3-9.3 26.8c-6.2 3.3-12.6-0.1-15.6-5.8c-3.4-6.3-3.2-15.1-0.4-21.5c3.5-7.8 16-13 22.8-5.5Z" fill="#ff8c5a"/><ellipse cx="2261.8" cy="787.7" class="cls-17" rx="6.6" ry="11.6" fill="#361029"/><ellipse cx="2354.5" cy="788.6" class="cls-17" rx="6.6" ry="11.6" fill="#361029"/><path class="cls-17" d="M2273.5 737.6c3.1 .2 6.4 .6 9 2.4c3.4 2.4 4.9 6.6 4 10.6c-0.1 .5-0.3 .9-0.6 1.2c-0.4 .3-0.8 .4-1.3 .5c-13.2 2.2-26.7 4.5-40 2.3c-3.7-0.6-8.9-2.4-8.4-7.2c.4-3.5 4-4 6.8-5c9.8-3.5 19.9-5.5 30.5-4.8Z" fill="#361029"/><path class="cls-17" d="M2342.6 737.6c-3.2 .2-6.5 .6-9.1 2.4c-3.4 2.4-4.9 6.6-4 10.6c.1 .5 .3 .9 .6 1.2c.4 .3 .8 .4 1.3 .5c13.2 2.2 26.8 4.5 40 2.3c3.7-0.6 8.9-2.4 8.4-7.2c-0.4-3.5-4-4-6.8-5c-9.8-3.5-19.9-5.5-30.4-4.8Z" fill="#361029"/><path class="cls-19" d="M2289.9 794.3l-10.3 30.7l17.1 1.5l-6.8-32.2Z" fill="#ff6029"/><g class="cls-20" opacity=".28"><ellipse cx="2251.1" cy="820" class="cls-16" rx="9.7" ry="9.7" fill="#ff8c5a"/></g><g class="cls-20" opacity=".28"><ellipse cx="2377.6" cy="810.4" class="cls-16" rx="9.7" ry="9.7" fill="#ff8c5a"/></g><path class="cls-13" d="M2183.7 619.9c2.1-4.4 5.2-8.3 8.9-11.4c1.8-1.6 3.8-3 5.9-4.3c1-0.7 2.1-1.2 3.2-1.8c1.1-0.6 2.2-1 3.3-1.5c4.6-1.8 9.4-2.9 14.3-3.5c4.8-0.5 9.7-0.5 14.6 0c2.4 .2 4.8 .6 7.3 1c2.4 .4 4.8 1 7.1 1.6c4.7 1.2 9.4 2.6 13.9 4.3c9.1 3.5 17.9 7.7 26.3 12.6c16.8 9.8 32 21.9 46.1 35.1c14.2 13.2 27 27.7 38.5 43.2c-6.1-7.4-12.6-14.5-19.3-21.4c-6.7-6.9-13.6-13.6-20.7-20c-7.2-6.4-14.6-12.6-22.2-18.3c-3.9-2.9-7.8-5.7-11.7-8.4c-4-2.7-8-5.2-12.2-7.6c-8.2-4.9-16.8-9-25.8-12.5c-4.4-1.7-9-3.2-13.6-4.4c-2.3-0.7-4.6-1.1-6.9-1.7c-2.3-0.5-4.7-0.8-7-1.1c-9.4-1.1-19.1-0.7-28.1 2.5c-9 3.3-17.1 9.2-21.9 17.6Z" fill="#1a4ea2"/><path class="cls-14" d="M2715.3 1500c-107.9 17-300.8 28.7-385.1 32c-82.4 3.3-186.5-14.4-240.1-24.9c1.3-21 3.4-42.5 5.8-63.6c0 0 214.3-138.8 234.1-126.9c19.9 11.9 199.2-3.4 225.7-16c26.4-12.5 6-46.2-3.3-78.6c-8.5-29.7-5-64.2-3.1-94.5c1.2-18.5 3.1-36.9 6.9-54.9c3.5-17 8-36.6 17.9-50.9c8.6-12.4 26.1-35.5 44.5-30.6c.2 .1 .4 .1 .5 .2c-3-1.2-13.9 10.1-15.8 12.1c-5.1 5.3-9.6 11.2-13.3 17.6c-8.3 14-13.8 29.6-17.9 45.3c-9.7 38.1-12.3 79-10.2 118.1c.7 12.6-0.6 33.1 6.3 44.2c9.3 15.2 17.9 5.3 17.9 5.3l29.7 113.7l89.9 73.4c0 0 4.1 34 9.6 79Z" fill="#20307b"/><path class="cls-21" d="M2085.1 1599.8c-0.1-1.3 .4-2.7 1.4-3.7c1-1 2.4-1.5 3.8-1.4c28.5 3 162.4 14.6 360.9-6.4c224.8-23.8 281.4-24.5 281.4-24.5l13.6 9.7c9.5 6.7 13.2 19 9.2 29.8l-11.1 29.4c0 0-159.5-13.4-274.6-8.1c-106.5 4.9-343.8 .3-378.2-0.4c-2.3-0.1-4.3-1.9-4.5-4.3Z" fill="#d03e48"/><path class="cls-11" d="M2621.5 1495.6c-11.1 6-15 10.7-10.4 19.4l32.8 62c1.5 2.8 7.3 1.4 8.7 4l1.3 2.4c.7 1.3 .1 2.9-0.5 4.6l.3-0.2l26-14l.2-0.1c-1.7-0.4-3.3-0.8-4-2.2l-1.2-2.4c-1.4-2.5 3-6.7 1.5-9.5l-32.9-62c-4.6-8.6-10.6-7.9-21.8-2Zm27.4 75.4l-0.2 .1c-0.8 .4-1.6 .5-2.4 .3c-0.8-0.2-1.5-0.8-1.9-1.5l-31.1-58.7c-0.8-1.6-0.2-3.5 1.4-4.3l.2-0.1c.7-0.4 1.6-0.5 2.4-0.2c.8 .2 1.5 .7 1.9 1.5l31.1 58.7c.8 1.5 .1 3.4-1.4 4.2Zm10.2-5.5l-0.2 .1c-0.8 .5-1.6 .5-2.4 .3c-0.8-0.2-1.5-0.8-1.9-1.5l-31.1-58.7c-0.8-1.5-0.2-3.4 1.4-4.2l.2-0.1c.7-0.4 1.6-0.5 2.4-0.3c.8 .2 1.5 .7 1.9 1.5l31 58.7c.8 1.5 .2 3.4-1.3 4.2Zm10.9-9.3c.8 1.5 .2 3.4-1.4 4.2l-0.2 .1c-0.7 .4-1.6 .5-2.4 .3c-0.8-0.2-1.5-0.8-1.9-1.5l-31-58.7c-0.8-1.6-0.2-3.5 1.3-4.3l.2-0.1c.8-0.4 1.6-0.5 2.4-0.2c.8 .2 1.5 .7 1.9 1.5Z" fill="#febd57"/><path class="cls-1" d="M2634.6 1496.2l-0.2 .1c-1.5 .8-2.1 2.7-1.3 4.2l31 58.8c.4 .7 1.1 1.2 1.9 1.4c.8 .3 1.7 .2 2.4-0.2l.2-0.2c1.6-0.8 2.2-2.6 1.4-4.2l-31.1-58.7c-0.4-0.7-1.1-1.3-1.9-1.5c-0.8-0.2-1.6-0.1-2.4 .3Z" fill="#fff"/><path class="cls-1" d="M2625.1 1501.3l-0.2 .1c-1.6 .8-2.2 2.7-1.4 4.3l31.1 58.7c.4 .7 1.1 1.2 1.9 1.5c.8 .2 1.6 .1 2.4-0.3l.2-0.1c1.5-0.8 2.1-2.7 1.3-4.3l-31-58.7c-0.4-0.7-1.1-1.2-1.9-1.5c-0.8-0.2-1.7-0.1-2.4 .3Z" fill="#fff"/><path class="cls-1" d="M2614.9 1506.8l-0.2 .1c-1.6 .8-2.2 2.7-1.4 4.2l31.1 58.7c.4 .8 1.1 1.3 1.9 1.5c.8 .3 1.7 .2 2.4-0.2l.2-0.1c1.5-0.9 2.2-2.8 1.4-4.3l-31.1-58.7c-0.4-0.7-1.1-1.3-1.9-1.5c-0.8-0.2-1.7-0.1-2.4 .3Z" fill="#fff"/><path class="cls-22" d="M2731.6 1710.6l-1.8 7.9l14 16.6l3.6-1.9l3.5-1.9l-5.9-20.9l-7.5-2.9l-62.9-118.8l-5.8 3.2l62.8 118.7Z" fill="#061859"/><path class="cls-11" d="M2653.7 1587.9l-0.3 .1c-2.1 1.3-2.9 4-1.8 6.2l.7 1.2c.6 1.1 1.6 2 2.8 2.3c1.2 .3 2.5 .2 3.6-0.4l10.1-5.4l5.8-3.2l10.1-5.4c2.3-1.2 3.2-4.1 2-6.4l-0.7-1.2c-1.1-2.2-3.8-3-6.1-2l-0.2 .2Z" fill="#febd57"/><path class="cls-14" d="M2385 1850.5c-4.6 23-26.3 200.5-36.2 266.6c-9.9 66-12.6 208.2-9.3 291.5c3.3 83.3-30.4 179.8-30.4 179.8l-145.4 13.8l-3.6-36.7c87.1 3.3 133.4-210.9 126.9-335.8c-6.5-124.8 29.2-256.2 50.3-332.5c21.1-76.2 47.7-46.7 47.7-46.7Z" fill="#20307b"/><rect class="cls-11" width="52" height="324.8" fill="#febd57" transform="translate(-457.7,1807.7) rotate(-35.3) scale(1.004,1.004) translate(2592.4,1462.3)"/><rect class="cls-12" width="26.4" height="324.8" fill="#ff8c3e" transform="translate(-451.5,1812.4) rotate(-35.3) scale(1.004,1.004) translate(2615.7,1455)"/><rect class="cls-23" width="26.4" height="5" fill="#313b47" transform="translate(-402.8,1748.2) rotate(-35.2) translate(2538.9,1506.1)"/><rect class="cls-23" width="26.4" height="5" fill="#313b47" transform="translate(-408.1,1755.2) rotate(-35.2) translate(2547.2,1517.9)"/><rect class="cls-23" width="26.4" height="5" fill="#313b47" transform="translate(-413.4,1762.2) rotate(-35.2) translate(2555.6,1529.8)"/><rect class="cls-23" width="26.4" height="5" fill="#313b47" transform="translate(-418.8,1769.2) rotate(-35.2) translate(2564,1541.7)"/><rect class="cls-23" width="26.4" height="5" fill="#313b47" transform="translate(-424.1,1776.2) rotate(-35.2) translate(2572.4,1553.5)"/><rect class="cls-23" width="26.4" height="5" fill="#313b47" transform="translate(-429.4,1783.2) rotate(-35.2) translate(2580.8,1565.4)"/><rect class="cls-23" width="26.4" height="5" fill="#313b47" transform="translate(-434.7,1790.2) rotate(-35.2) translate(2589.2,1577.3)"/><rect class="cls-23" width="26.4" height="5" fill="#313b47" transform="translate(-440,1797.3) rotate(-35.2) translate(2597.6,1589.2)"/><rect class="cls-23" width="26.4" height="5" fill="#313b47" transform="translate(-445.3,1804.3) rotate(-35.2) translate(2605.9,1601)"/><rect class="cls-23" width="26.4" height="5" fill="#313b47" transform="translate(-450.7,1811.3) rotate(-35.2) translate(2614.3,1612.9)"/><rect class="cls-23" width="26.4" height="5" fill="#313b47" transform="translate(-456,1818.3) rotate(-35.2) translate(2622.7,1624.8)"/><rect class="cls-23" width="26.4" height="5" fill="#313b47" transform="translate(-461.3,1825.3) rotate(-35.2) translate(2631.1,1636.7)"/><rect class="cls-23" width="26.4" height="5" fill="#313b47" transform="translate(-466.6,1832.3) rotate(-35.2) translate(2639.5,1648.5)"/><rect class="cls-23" width="26.4" height="5" fill="#313b47" transform="translate(-471.9,1839.3) rotate(-35.2) translate(2647.9,1660.4)"/><rect class="cls-23" width="26.4" height="5" fill="#313b47" transform="translate(-477.2,1846.3) rotate(-35.2) translate(2656.2,1672.3)"/><rect class="cls-23" width="26.4" height="5" fill="#313b47" transform="translate(-482.5,1853.3) rotate(-35.2) translate(2664.6,1684.2)"/><rect class="cls-23" width="26.4" height="5" fill="#313b47" transform="translate(-487.8,1860.3) rotate(-35.2) translate(2673,1696)"/><rect class="cls-23" width="26.4" height="5" fill="#313b47" transform="translate(-493.2,1867.4) rotate(-35.2) translate(2681.4,1707.9)"/><rect class="cls-23" width="26.4" height="5" fill="#313b47" transform="translate(-498.5,1874.4) rotate(-35.2) translate(2689.8,1719.8)"/><rect class="cls-23" width="26.4" height="5" fill="#313b47" transform="translate(-503.8,1881.4) rotate(-35.2) translate(2698.2,1731.7)"/><path class="cls-13" d="M2678 1790.7c-8 .2-15.7-2.7-21.5-8.2l-149.7-144.5c-4.5-4.3-10.9-5.9-16.9-4.1c-5.3 1.6-9 2.5-11.6 2.5c-15.8 .5-31-5.5-42.2-16.6c-11.3-11.2-17.4-26.5-16.9-42.3c.1-2 1.2-3.8 2.9-4.8c1.8-1 4-1.1 5.9-0.2l31.9 17.9c9.3-5.2 15.3-14.7 16-25.3l-35.7-19.9c-1.6-0.9-2.7-2.5-2.9-4.4c-0.2-1.8 .6-3.7 2-4.9c9.5-8.3 21.5-13.3 34.2-14c14.1-0.7 28.1 4.7 39.4 15.3c14.5 13.6 20.7 31.8 18.1 52.8c-0.8 5.6 1.2 11.2 5.4 15l154.3 141c5.8 5.5 9.2 13 9.5 21c.2 6.1-2 12-6.2 16.5c-4.2 4.4-9.9 7-16 7.2Z" fill="#1a4ea2"/><path class="cls-3" d="M2674 1792c-8 .3-15.7-2.7-21.5-8.1l-149.7-144.5c-4.5-4.4-10.9-5.9-16.9-4.1c-5.4 1.6-9.1 2.4-11.6 2.5c-15.8 .5-31.1-5.6-42.3-16.7c-11.2-11.1-17.3-26.4-16.8-42.2c.1-2 1.1-3.8 2.8-4.8c1.8-1.1 4.1-1.1 5.9-0.2l32 17.8c9.2-5.1 15.3-14.6 16-25.2l-35.7-19.9c-1.6-0.9-2.7-2.5-2.9-4.4c-0.2-1.8 .5-3.7 1.9-4.9c9.5-8.4 21.5-13.3 34.2-14c14.1-0.7 28.1 4.7 39.4 15.3c14.5 13.5 20.7 31.8 18.1 52.8c-0.8 5.6 1.3 11.2 5.4 15l154.3 141c5.8 5.5 9.3 13 9.5 21c.4 12.6-9.5 23.1-22.1 23.6Z" fill="#b6c7ff"/><path class="cls-1" d="M2530.9 1624.8l116.3 104.2l-14.7 15l-113.9-106.4l12.3-12.8Z" fill="#fff"/><path class="cls-10" d="M2767.9 1716.7c-2.8 19.6-60.9 58.2-80 72.6c-4.2 3-9.2 4.6-14.3 4.7c-19.8 1.1-44.9-13.2-49.3-14c-5.6-1-24.2 8.8-39.5 19c-15.3 10.3-113.9 2.6-129.7-5.1c-15.8-7.8-20.9-109.7-20.9-131.4c0-21.6 8.4-15.4 8.4-15.4c14.9 11.3 132.8 11.9 132.8 11.9c0 0 34-1 37.3-0.6c3.2 .5 20.4-1.5 33-5.1c12.5-3.6 14.8-1.6 25.5-0.5c10.7 1 47.9-60.3 53-81.4c5.2-21.1-3.4-27.3-3.4-27.3c4.7-1 36 5.7 41.6 22.7c5.5 17 8.2 130.3 5.5 149.9Z" fill="#6192de"/><g class="cls-24" opacity=".26"><path class="cls-13" d="M2673.6 1794c-19.8 1.1-44.9-13.2-49.3-14c-5.6-1-24.2 8.8-39.5 19l-9.5-140c0 0 34.1-1 37.3-0.5c3.3 .5 20.5-1.6 33-5.2c12.6-3.6 14.9-1.5 25.6-0.5Z" fill="#1a4ea2"/></g><path class="cls-25" d="M2612.6 1658.5c0 0 10.2 83.8 11.7 121.5" stroke="#1a4ea2" stroke-miterlimit="10" fill="none"/><path class="cls-15" d="M2195.7 2588.6c0 0 2.9 80.9-11.1 96.7c-13.9 15.7 40 48.6 58.6 39.2c18.5-9.4 25.5-11.3 25.5-11.3c0 0-9-57.8-1.8-101.6c7.3-43.9-71.2-23-71.2-23Z" fill="#ffc890"/><path class="cls-26" d="M2297.5 2762.1c0 4.4-0.8 8.7-2.4 12.8l-294.4 4.2c0 0-7.5-2.4-10.4-15.2c-0.7-3.5-1.1-7.1-1.1-10.7c-0.1-22.3 110.4-42.7 146.9-58.6c47.2-20.5 43.9-8.1 43.9-8.1c0 0 41.2 14.5 86.9-0.5c0 0 16.2-26.1 28 50.3c0 0 3.1 13.4 2.6 25.8Z" fill="#454b6b"/><path class="cls-14" d="M2297.5 2762.1c0 4.4-0.8 8.7-2.4 12.8l-294.4 4.2c0 0-7.5-2.4-10.4-15.2Z" fill="#20307b"/><path class="cls-1" d="M2136.6 2720.2c-1 0-1.9-0.7-2-1.7c-0.6-7.3-3.2-14.2-7.5-20.1c-0.3-0.4-0.4-0.9-0.3-1.3c.1-0.5 .4-0.9 .8-1.2c.9-0.5 2.1-0.4 2.9 .5c4.8 6.3 7.6 13.9 8.2 21.9c0 .5-0.2 1-0.6 1.3c-0.4 .4-0.8 .6-1.4 .6Z" fill="#fff"/><path class="cls-1" d="M2108.7 2724.5c-1 .1-1.9-0.7-2-1.7c-0.8-11.5-6-16.4-6-16.4c-0.4-0.3-0.6-0.8-0.6-1.3c0-0.5 .3-0.9 .6-1.2c.9-0.7 2.1-0.7 2.9 0c.3 .2 6.3 5.7 7.2 18.7c0 .5-0.2 1-0.6 1.3c-0.4 .4-0.9 .6-1.4 .6Z" fill="#fff"/><path class="cls-1" d="M2164.9 2712.7c-1 0-1.9-0.7-2.1-1.7c-1.1-19.5-13.8-20.1-14-20.1c-0.5 0-1-0.2-1.4-0.5c-0.3-0.4-0.6-0.9-0.6-1.4c.2-1 1.1-1.8 2.2-1.7c.6 0 16.5 .8 17.9 23.5c0 .5-0.3 1-0.6 1.3c-0.4 .4-0.9 .6-1.4 .6Z" fill="#fff"/><path class="cls-15" d="M2662.6 2588.6c0 0 2.9 80.9-11.1 96.7c-13.9 15.7 40 48.6 58.6 39.2c18.5-9.4 25.6-11.3 25.6-11.3c0 0-9.1-57.8-1.9-101.6c7.3-43.9-71.2-23-71.2-23Z" fill="#ffc890"/><path class="cls-26" d="M2764.4 2762.1c0 4.4-0.8 8.7-2.3 12.8l-294.5 4.2c0 0-7.4-2.4-10.3-15.2c-0.8-3.5-1.2-7.1-1.1-10.7c-0.2-22.3 110.3-42.7 146.8-58.6c47.2-20.5 43.9-8.1 43.9-8.1c0 0 41.2 14.5 87-0.5c0 0 16.2-26.1 28 50.3c-0.1 0 3 13.4 2.5 25.8Z" fill="#454b6b"/><path class="cls-14" d="M2764.4 2762.1c0 4.4-0.8 8.7-2.3 12.8l-294.5 4.2c0 0-7.4-2.4-10.3-15.2Z" fill="#20307b"/><path class="cls-1" d="M2603.6 2720.2c-1.1 0-1.9-0.7-2.1-1.7c-0.6-7.3-3.1-14.2-7.5-20.1c-0.3-0.4-0.4-0.9-0.3-1.3c.1-0.5 .4-0.9 .8-1.2c1-0.5 2.2-0.4 2.9 .5c4.8 6.3 7.6 13.9 8.2 21.9c0 1.1-0.9 1.9-1.9 1.9Z" fill="#fff"/><path class="cls-1" d="M2575.7 2724.5c-1.1 .1-1.9-0.7-2.1-1.7c-0.8-11.5-5.9-16.4-6-16.4c-0.4-0.3-0.6-0.8-0.6-1.3c.1-0.5 .3-0.9 .7-1.2c.8-0.7 2-0.7 2.9 0c.2 .2 6.2 5.7 7.1 18.7c0 .5-0.2 1-0.6 1.3c-0.3 .4-0.8 .6-1.3 .6Z" fill="#fff"/><path class="cls-1" d="M2631.8 2712.7c-1 0-1.9-0.7-2.1-1.7c-1.1-19.5-13.8-20.1-13.9-20.1c-0.5 0-1-0.2-1.4-0.5c-0.4-0.4-0.6-0.9-0.6-1.4c.1-1 1.1-1.8 2.1-1.7c.7 0 16.6 .8 17.9 23.5c0 .5-0.2 1-0.6 1.3c-0.3 .4-0.8 .6-1.3 .6Z" fill="#fff"/><path class="cls-1" d="M2157.6 1288.3l203.4-93.3l5.9 11.3l-202.6 91.5l-6.7-9.5Z" fill="#fff"/><path class="cls-15" d="M2789.8 1458.4c-53.2 52.4-408.1-5.3-471.8-60.7c-15.1-4.1-29.9-9.3-44.3-15.3c-12.6-5.4-24.9-12-32.2-19.1c-12-11.7-27.9-27.4-36.2-42.4c-5.6-10.1-7.8-19.9-3.3-28c0 0-6.8-17.8 7.4-28.7c0 0 1.5-24.3 16.5-26.7c15.1-2.5 41.5-3.8 47.3 3c5.9 6.8 68 98.8 83.8 101.8c15.7 3 233-3.6 254.3-9.3l-19.6-75l-5.6-21.4c0 0 49.9-93.7 172.5-59.5c0 0 5.4 14.5 12.5 37.2c21.3 67 58.4 204.9 18.7 244.1Z" fill="#ffc890"/><g class="cls-27" opacity=".55"><path class="cls-16" d="M2273.7 1379.8c-12.6-5.4-24.9-12-32.2-19.1c-12-11.7-27.9-27.4-36.2-42.4c10.2-2.7 31.2-6.9 40.3 1.7c8.6 8.1 21.4 41.2 28.1 59.8Z" fill="#ff8c5a"/></g><path class="cls-16" d="M2611.3 1330.4c0 0 56.1-5.6 80.6 6.7c24.5 12.4-8.4-19.8-25.7-25.8c-17.2-6-59.9 0-59.9 0Z" fill="#ff8c5a"/><path class="cls-16" d="M2771.1 1211.6c-22.4-7.8-56.1-17.1-89.1-12.7c-44.6 6-78.3 41.9-90.3 56.5l-5.6-21.5c0 0 49.9-93.7 172.5-59.4c0 0 5.4 14.5 12.5 37.2Z" fill="#ff8c5a"/><path class="cls-16" d="M2202 1290c3.8-1.4 7.8-2.3 11.8-2.6c3.9-0.4 7.8-0.4 11.8-0.1c3.9 .2 7.8 .9 11.6 1.9c1.9 .5 3.8 1.1 5.7 1.8c1 .5 1.9 .8 2.8 1.3c.5 .3 .9 .5 1.4 .8c.5 .3 .9 .6 1.3 1l-0.1 .5c-1-0.2-1.9-0.4-2.9-0.5c-0.9-0.2-1.9-0.2-2.8-0.3c-2-0.3-3.9-0.5-5.8-0.6c-3.9-0.4-7.7-0.7-11.6-0.9l-11.6-0.9l-5.8-0.4l-5.8-0.4Z" fill="#ff8c5a"/><path class="cls-16" d="M2209.4 1261.3c4.2-1.8 8.7-3.1 13.2-3.8c4.4-0.7 8.9-1 13.4-1c4.5 0 9 .4 13.4 1.2c2.3 .5 4.5 1.1 6.7 1.9c.6 .2 1.1 .4 1.7 .7c.5 .2 1.1 .5 1.6 .8c.5 .2 1.1 .6 1.6 1l.7 .6c.2 .2 .4 .5 .6 .7l-0.3 .4c-0.9-0.5-1.9-0.8-3-1c-1-0.2-2.1-0.4-3.2-0.5c-2.2-0.2-4.4-0.4-6.6-0.5c-4.4-0.2-8.8-0.3-13.2-0.3c-4.5 .1-8.9 0-13.3 .1l-13.2 .3Z" fill="#ff8c5a"/><path class="cls-21" d="M2243.4 1366l-140.5 22.2l-78.7-127.2l-37.5-47.8l-52.8-67.4l7.2-8.6h144.2l109.7 158.8l48.4 70Z" fill="#d03e48"/><path class="cls-28" d="M2243.4 1366h-12.3l-48.3-70.4l-102.4-149.8h-146.5l7.2-8.6h144.2l109.7 158.8l48.4 70Z" fill="#aa0515"/><g class="cls-29" opacity=".37"><path class="cls-28" d="M2243.4 1366l-140.5 22.2l-78.7-127.2l-37.5-47.8c0 0 107.5 75.8 196.1 82.4c4.1 .3 8.2 .5 12.2 .4Z" fill="#aa0515"/></g><path class="cls-15" d="M2271.9 1427.5c-6 9-29.7 22.6-46.8 28.6c-17.1 6-36.6-5-36.6-5c0 0-46.8 14-74 18.9c-27.2 5-84.2-8-98.1-37.8c-12.3-26.4 .7-139.8 3.9-165.9c.4-3.4 .6-5.3 .6-5.3l85.9 102.2h.2l40.1 5.3c0 0 .6-15.9 11.6-28.6c10.9-12.7 7.8-36 22.1-39.7c14-3.6 5 49 4.7 50.4c.5-0.8 16.3-27.8 39.7-26.4c23.7 1.5 16.3 32.4 16.3 32.4c20.2 3 16.7 21.9 16.7 21.9c19.9 2 10.2 25.8 10.2 25.8c0 0 9.5 14.3 3.5 23.2Z" fill="#ffc890"/><path class="cls-16" d="M2188.5 1451.1c0 0-32-26.9-35.4-46.6c-3.4-19.8-8.3 32.5 22.1 50.5Z" fill="#ff8c5a"/><path class="cls-16" d="M2241.5 1356.7c-2.1 2.4-4.4 4.5-7 6.3c-1.2 1-2.5 1.7-3.8 2.6c-1.2 .9-2.6 1.6-3.9 2.4c-1.3 .8-2.7 1.4-4.1 2.1c-1.3 .7-2.7 1.4-4.2 1.9c-2.9 1.2-5.9 2.2-9 2.8l-0.1-0.3c5.2-3.1 10.6-6.1 15.9-9.1c5.3-3.1 10.7-6 16.1-8.9Z" fill="#ff8c5a"/><path class="cls-16" d="M2258.2 1378.6c-2.1 2.6-4.5 4.9-7.2 7c-1.2 1.1-2.5 2-3.8 3c-1.3 1-2.7 1.8-4 2.8c-1.3 .9-2.8 1.7-4.2 2.5c-1.4 .8-2.8 1.7-4.3 2.4c-2.9 1.5-6 2.8-9.1 3.9l-0.2-0.2c2.6-2 5.3-3.9 8-5.7l8.1-5.5l8.3-5.2c2.7-1.8 5.5-3.5 8.3-5.2Z" fill="#ff8c5a"/><path class="cls-16" d="M2268.4 1404.5c-1.6 2.2-3.4 4.2-5.5 6c-2 1.8-4.1 3.4-6.3 4.8c-2.3 1.5-4.6 2.7-7 3.8c-2.5 1.2-5.1 2.1-7.8 2.7l-0.1-0.2c4.3-3 8.8-5.9 13.2-8.8c4.4-2.9 8.8-5.8 13.3-8.5Z" fill="#ff8c5a"/><path class="cls-16" d="M2106.8 1363.2c0 0-48.8 3-70.3 2.4c-21.6-0.6 50.3-11.8 46.9-20.6c-3.5-8.8-63.2-78.7-63.2-78.7c.4-3.4 1-9.1 1-9.1Z" fill="#ff8c5a"/><path class="cls-13" d="M2153.4 2572.4c0 0-5.1 48.5 11.5 53.6c16.6 5.1 139.2 20.5 148.8-7c9.5-27.4 14.6-57.4-7-54.2c-21.7 3.1-151.4-16-153.3 7.6Z" fill="#1a4ea2"/><path class="cls-13" d="M2606 2581.8c0 0 6.3 48.3 23.6 49.5c17.3 1.1 140.2-12.4 143.1-41.3c3-29 1-59.3-19.4-51.2c-20.4 8.1-150.9 19.5-147.3 43Z" fill="#1a4ea2"/><rect x="1898.7" y="796.8" class="cls-6" width="107.1" height="192.5" fill="#ccd5ff"/><rect x="1892.3" y="787.7" class="cls-5" width="107.1" height="192.5" fill="#f2f4ff"/><path class="cls-30" d="M2282 875.8c5.5 4.4 12.5 6.4 19.5 5.5c15.4-2.1 25.2-6.1 31.6-13.9c3.1-3.9 5.4-8.4 6.9-13.2c0 0 1.6-5.9-1.3-7.9c-0.9-0.7-2.3-1-4.4-0.5c-8.6 2-56 10-62 10.6c-4 .3 .1 12.1 9.7 19.4Z" fill="#bd3132"/><path class="cls-31" d="M2272.2 856.4c2.2 2.5 7.3 5.1 12.8 6c5.6 .9 42.8-7.7 47.2-8.9c4.4-1.1 6.5-7.3 6.5-7.3c-0.9-0.7-2.3-0.9-4.4-0.4c-8.6 2.1-56 10.1-62 10.6Z" fill="#f9ffff"/><path class="cls-32" d="M2282 875.8c5.5 4.4 12.5 6.4 19.5 5.5c15.4-2.1 25.2-6.1 31.6-13.9c-9.6-1.1-30.1-1.7-51.1 8.4Z" fill="#ff767b"/><path class="cls-14" d="M3226.5 2477.6h-172.5c-8.4 0-15.2 6.3-15.2 14.1v71c0 7.9 6.8 14.2 15.2 14.2h15.2c-2.4-2.5-3.8-5.8-3.8-9.3v-59.9c0-7.8 6.8-14.2 15.2-14.2h122.5c8.4 0 15.2 6.4 15.2 14.2v59.9c0 3.5-1.3 6.8-3.7 9.3h11.8c8.4 0 15.2-6.3 15.2-14.2v-71c0-7.8-6.8-14.1-15.1-14.1Z" fill="#20307b"/><path class="cls-14" d="M3295.7 2771.6h-311.8c-12.9-0.1-23.7-9.9-25.1-22.7l-12.9-103.2c-1.9-15.5 9.9-29.3 25.2-29.3h335.7c15.1 0 26.9 13.5 25.3 28.9l-11.1 103.1c-1.2 13.1-12.1 23.1-25.3 23.2Z" fill="#20307b"/><path class="cls-11" d="M3340.9 2634.2h-408v-73.6c0-10.6 8.6-19.2 19.2-19.2h369.6c10.6 0 19.2 8.6 19.2 19.2Z" fill="#febd57"/><path class="cls-13" d="M3356.1 2624.7l-0.8-3.6h-72.8v-15.5h69.1l-3.1-13.2c-1.4-5-6-8.5-11.1-8.4h-398.4c-5.3-0.1-10 3.5-11.2 8.7l-2.5 12.9h53v15.5h-56.1l-0.8 4c-1.3 6.5 4.1 12.5 11.2 12.5h45.7v16.7c0 10.2 8.9 18.5 19.8 18.5h32.4c11 0 19.8-8.3 19.8-18.5v-16.7h160.1v16.7c0 10.2 8.9 18.5 19.8 18.5h32.4c11 0 19.8-8.3 19.8-18.5v-16.7h62.6c7.3 0 12.7-6.3 11.1-12.9Zm-305.8-3.6v-15.5h160.1v15.5Z" fill="#1a4ea2"/><rect x="2988" y="2541.4" class="cls-13" width="318.2" height="14.2" fill="#1a4ea2"/></g></symbol><symbol id="Symbol-2" preserveAspectRatio="none" width="4680" height="3120" viewBox="0 0 4680 3120" overflow="visible"><g data-name="02"><rect data-name="02" class="cls-1" width="4680" height="3120" fill="#fff"/><path class="cls-2" d="M3657.6 2023.2c-29.1 71.3-64.2 131.4-102.9 181.4c0 0 0 0 0 .1c-11.5 14.8-23.3 28.7-35.4 41.8c-0.7 .7-1.3 1.3-1.9 2c-0.2 .2-0.4 .4-0.5 .5c-4.5 4.8-9 9.5-13.5 14c-4 4-7.9 7.8-11.9 11.6c-5.1 4.8-10.2 9.4-15.3 13.9c-8.9 7.9-17.9 15.3-27 22.3c-1.2 .9-2.4 1.8-3.5 2.7c-33.5 25.5-70.2 46.7-109.1 62.8l-0.1 .1c-30.8 12.8-63 21.8-95.9 27c-34.4 5.3-67.7 9.7-100 13.2c-3.7 .5-7.4 .9-11.1 1.3l-4.9 .5l-1.3 .1c-32.9 3.4-64.7 6-95.5 7.8c-4.4 .3-8.7 .6-13 .8c-10.5 .6-20.8 1.1-31 1.5c-3.6 .1-7.1 .3-10.7 .4l-3.8 .1l-7.9 .3c-79 2.5-151.6 .6-219.6-3.2c-73-4-140.6-10.3-205.2-15.7l-7-0.6c-14-1.1-27.8-2.2-41.5-3.3c-8.2-0.6-16.3-1.2-24.4-1.7c-75.8-5.3-148.3-7.6-221.4-1.6c-5.5 .5-11 .9-16.4 1.5c-2 .2-4 .4-6 .6c-23.6 2.5-47.3 5.9-71.2 10.4c-44.2 8.3-87.6 20-130 35.1c-10.5 3.7-21.1 7.7-31.8 11.9c0 0-8.4 2-23.9 4.9c-10.2 2-23.5 4.4-39.4 6.9c-34 5.5-80.2 11.7-134.6 16h-0.5h-0.1c-67.7 5.4-148 7.8-233.9 2.3c-15.5-1-31.3-2.3-47.1-3.8c-62.2-6.1-126.3-16.7-190-33.5c-22.2-5.8-44.2-12.5-66.2-20c-1.9-0.6-3.8-1.3-5.6-1.9c-23.6-8.2-47-17.4-70-27.6c-2.1-0.9-4.2-1.9-6.3-2.8c-36.3-16.7-71.4-36.1-104.8-58.1c-16.3-10.6-32.4-22-48.5-34.1l-5.1-3.9l-2.7-2.1c-114.4-88.4-218.5-212.5-274-359.6c-14.9-39.3-26-79.9-33.2-121.3c-10.4-60.3-11.8-121.8-4.2-182.5c4.9-40 13.5-79.3 25.7-117.7c9.3-29.2 20.3-57.9 33.2-85.7c6.2-13.6 13.9-34.5 27.5-60.5c34-65.2 104.8-162.3 281.2-255.9c100.6-53.3 235.5-105.4 417.3-149.8c44.4-10.9 91.7-21.2 141.8-31c2.1-0.4 4.3-0.9 6.4-1.3c157.2-32.2 284.2-109.1 402.8-199.7c41.3-31.6 81.6-64.8 121.9-98.4c22.6-18.9 45.2-37.8 67.8-56.7c191-158.5 391.1-307.8 698.2-307.8c582.9 0 744.7 406.2 808.8 1000.6c35.2 326.4-0.2 569.8-71.8 745.4Z" fill="#f2f2f2"/><path class="cls-3" d="M3138.8 2608.6l-0.1-30.8l-9-2.6l-255.9-75.6v-174c0-0.8-0.4-1.6-0.9-2.2c-0.6-0.5-1.4-0.9-2.2-0.9h-24.7v-166.4l7.6-1.7c237.8-3 277-36.3 267.3-75.7c4.4-14.5-2.7-30.6-12.2-46.7c-10.6-18-22.8-33.7-50.1-45.8c-1-5.3-2.2-10.6-3.6-15.9c0 0 13.5-37.9 5.9-95.5h4.5c9.6 0 17.5-7.9 17.5-17.5v-224.1l3.8-1.4l63.8-23.8c-12.8-76-38.3-171.2-70.8-191c0 0-12.8-13.1-42.2-21.7c3.9-13.8 9.3-27.6 9.8-42.8c.7-21-4.2-33-13.5-45.4c-9.2-12.2-3-20.4 6.3-36.5c8.3-14.1 12.8-30.9 17-47.2c2.8-10.4 5.5-20.8 7.2-31.3l3.4 .9c0 0 46.6-108.5-55.3-172.5l1.4-3.6l-33.4-15.5c-4.2-0.8-8.2-1.5-12.2-2.1l-1.9-0.7c0 0-114-24.7-164.1 101.7c0 0-16.9-3-41.6-0.6c-8.9 .9 3.5 6.6 27.8 14.7c-2 1.3-4.2 2.7-6.4 4.3c3.4 3.8 7.1 7.2 11 10.3l-1.7 1.2l-0.3 .3c-1.2 .8-2.4 1.7-3.5 2.6l-0.8 .5c-1 .8-2 1.6-3 2.3l-0.6 .5c-1.1 .9-2.2 1.9-3.3 2.8l-0.7 .6c-1 .8-1.9 1.6-2.8 2.4c-0.2 .2-0.5 .4-0.7 .6c-1.1 1-2.1 2-3.2 3l-0.6 .6c-0.8 .9-1.7 1.7-2.6 2.6l-0.8 .8c-1 1-2 2.1-3 3.2l-0.3 .4c-0.9 1-1.8 1.9-2.6 2.9c-0.3 .3-0.5 .6-0.8 .9c-1 1.1-1.9 2.2-2.8 3.4c-15.4 19-24.9 46.8-17.9 69.5c2.9 9.6 8.5 18 9.3 28.3c1 12.5-5.4 25-13.1 34.8c-7.7 9.7-17 17.7-24.4 27.7c-15.4 21-20.7 48.8-19.5 75.4c-22.7 6.2-34.2 16.3-39.1 24.1c-16.5 21.1-35.1 57.9-50.7 91.9h-33.9c-9.6 0-17.5 7.8-17.5 17.5v238.2c-0.5 1.6-0.9 3.2-1.2 4.8h1.2v84.5c0 9.7 7.9 17.5 17.5 17.5h49.7c-32 36.7-37.1 74.7-31.3 106.8c-35.7 12.7-49.7 30-61.7 50.4c-9.5 16.2-16.6 32.2-12.2 46.7c-6.2 25.2 7.5 47.8 80 61.7c-10.3 29.7-7.2 63.3-1.9 94c14 82.1 24.3 164 27 247.3c.7 23.6 .7 44.5 0 60l-113.8 33.5l-9.1 2.7v30.8c-15.8 2.3-27.1 16.5-25.9 32.5c1.2 15.9 14.5 28.2 30.5 28.2c16 0 29.2-12.3 30.4-28.2c1.2-16-10.1-30.2-25.9-32.5v-3l92.8-13.3c-2.1 2.2-4.3 4.4-6.5 6.6c-15.1 14.3-32.7 26.7-40.7 32.6c-13.9 10.3-19 29.4-19 29.4v8.4h169.3v-8.4c8-13.3 8.4-27.2 5.2-46.1c-1.6-9.6-4-20.4-7-33.2c-0.2-1.3-0.5-2.5-0.8-3.7l56.4-8c.1 4.1 .2 8 .4 11.7c.5 12.3 1.1 22 2.8 27.8c3.7 12.6 16.1 25.3 29.1 34.9c2.6 13.8 14.2 24.1 28.2 24.9c14.1 .9 26.9-8 31-21.4c7.9-8 14-17.6 17.8-28.2c5.6-15.3-6.8-34.2-18.1-54.5l283.2 40.5v3c-15.8 2.3-27.1 16.5-25.9 32.4c1.2 15.9 14.5 28.3 30.5 28.3c15.9 0 29.2-12.4 30.4-28.3c1.2-15.9-10.1-30.1-25.9-32.4Zm-354.3-286.1c0-4.8 0-9.7 0-14.7c.3-43.5 2.5-93.2 4-138.7l.6-0.1v153.5Zm167-191h.9h-0.9Zm80.6-8.9l-0.6 .1Zm-4.9 .9l-0.6 .1Zm-10.6 1.6l-1 .1Zm-5.8 .8h-0.3Zm-5.8 .7l-0.8 .1Zm-5.6 .7l-1.1 .1Zm-12.5 1.3l-1.3 .1Zm-6.3 .6l-1.1 .1Zm-7.3 .7h-0.8Zm-6.3 .5l-1.5 .1Zm-7.4 .6h-0.5Zm81.7-10l.6-0.2Zm4.7-1h.2Zm8.6-1.9l.4-0.1Zm8.2-2h.2Zm3.8-1h.1Zm7.2-2.1h.1Zm-479.9 8l-0.5-0.1Zm-4.7-0.9h-0.1Zm-8.6-1.9l-0.4-0.1Zm-8.2-2h-0.2Zm-3.8-1h-0.1Zm-7.1-2.1h-0.2Zm130.5 407c.8-10 2.3-22.4 4.9-38.5c2.3-14.4 5.5-31.6 9.7-52.8c3.2-16.6 6.1-33.2 8.5-49.9c5.4 12.6 10.7 25.2 15.7 37.9c11.1 28.7 16.9 58.4 20.1 85.9Z" opacity=".5" fill="#7d98ae"/><rect x="1431.1" y="260" class="cls-4" width="1267.8" height="1038.6" stroke-width="5.7px" stroke="#bfbfbf" stroke-miterlimit="10" fill="#fff"/><rect x="1460.9" y="288" class="cls-5" width="1193.5" height="977.7" fill="#cadae5"/><path class="cls-1" d="M2153.4 462.7h-321.2v27.8h321.2Zm-2.5 25.2h-316.2v-22.6h316.2Z" fill="#fff"/><path class="cls-1" d="M2418.6 800.5h30.3v-60.7v-45.5v-37.5h.5v-45.5h-0.5v-123.4h-167.3v312.6h137Zm0-310h27.8v37.4h-27.8Zm0 40h27.8v40.4h-27.8Zm0 43h27.8v37.9h-27.8Zm0 40.4h27.8v40.4h-27.8Zm0 43h27.8v37.4h-27.8Zm0 39.9h27.8v40.5h-27.8Zm0 43h27.8v58.2h-27.8Zm-102.9-249.3h100.4v37.4h-100.4Zm0 40h100.4v40.4h-100.4Zm0 43h100.4v37.9h-100.4Zm0 40.4h100.4v40.4h-100.4Zm0 43h100.4v37.4h-100.4Zm0 39.9h100.4v40.5h-100.4Zm0 43h100.4v58.2h-100.4Zm-2.5-2.5h-29.1v-40.5h29.1Zm0-82.9h-28.7v-40.5h28.7Zm-29.1-163.9h29.1v37.5h-29.1Zm0 40h29.1v40.5h-29.1Zm0 43h29.1v37.9h-29.1Zm0 83.4h29.1v37.4h-29.1Zm0 83h29.1v58.1h-29.1Z" fill="#fff"/><path class="cls-1" d="M2282.9 916.5v164.6h164.8v-26h.4v-38.8h-0.3v-36.2h-0.1v-63.6h-164.8Zm29.4 162.1h-26.9v-23.5h26.9Zm0-26.1h-26.5v-33.7h26.5Zm0-36.2h-26.8v-33.6h26.8Zm0-36.2h-26.9v-33.6h26.9Zm0-36.2h-26.9v-24.9h26.9Zm2.5-24.9h129.9v24.9h-129.9Zm0 27.4h129.9v33.7h-129.9Zm0 36.2h129.9v33.7h-129.9Zm0 36.2h129.9v33.7h-129.9Zm0 36.2h129.9v23.6h-129.9Z" fill="#fff"/><rect x="2282.9" y="1109.3" class="cls-1" width="172.2" height="5.5" fill="#fff"/><path class="cls-1" d="M2231.9 873.7c.9 4.4 5 7.3 9.4 6.6c4.4-0.6 7.6-4.5 7.3-8.9c-0.3-4.4-3.9-7.9-8.4-7.9c-4.4-0.1-8.1 3.3-8.5 7.7h-16.6v-136.1h15.8c.8 4.4 4.9 7.3 9.3 6.7c4.4-0.5 7.7-4.4 7.4-8.8c-0.2-4.5-3.8-8-8.2-8.1c-4.5-0.1-8.2 3.3-8.7 7.7h-15.6v-32.6h15.5c.7 4.3 4.6 7.5 9 7.1c4.4-0.3 7.8-4 7.8-8.4c0-4.4-3.4-8-7.8-8.4c-4.4-0.3-8.3 2.8-9 7.2h-103.1v-102.7h-13.5v-41c4.3-0.4 7.6-4.1 7.5-8.4c0-4.3-3.4-7.9-7.7-8.2c-4.4-0.2-8.2 2.9-8.8 7.2c-0.6 4.2 2.2 8.3 6.5 9.2v9.4h-53.7v-9.3c4.3-0.4 7.6-4 7.6-8.3c-0.1-4.4-3.5-7.9-7.8-8.2c-4.3-0.3-8.1 2.8-8.7 7.1c-0.6 4.3 2.2 8.3 6.4 9.3v9.4h-122.7v-9.3c4.3-0.4 7.6-4 7.5-8.3c0-4.4-3.4-7.9-7.7-8.2c-4.4-0.3-8.2 2.8-8.8 7.1c-0.6 4.3 2.2 8.3 6.5 9.3v9.4h-73.8v-8.9c4.3-0.4 7.6-4.1 7.5-8.4c0-4.3-3.4-7.9-7.7-8.2c-4.4-0.2-8.2 2.9-8.8 7.2c-0.6 4.3 2.2 8.3 6.5 9.2v9.1h-0.3v31.8h-14.3v102.6h-53.9v39.3h-31.7h-18.6c-0.5-4.3-4.1-7.5-8.5-7.3c-4.3 .1-7.8 3.5-8 7.8c-0.2 4.3 3 8.1 7.3 8.6c4.2 .5 8.2-2.3 9.1-6.5h18.7v145.8h-18.7c-0.5-4.3-4.1-7.5-8.5-7.4c-4.3 .1-7.8 3.6-8 7.9c-0.2 4.3 3 8 7.3 8.6c4.2 .5 8.2-2.4 9.1-6.6h50.5v32.6h-0.1v119.2c-4.3 .9-7.1 5-6.5 9.4c.6 4.4 4.5 7.5 8.9 7.2c4.4-0.3 7.9-3.9 7.9-8.3c.1-4.5-3.3-8.1-7.7-8.5v-35.7h51.4v35.9c-4.3 .9-7.1 5-6.5 9.4c.6 4.4 4.5 7.5 8.9 7.2c4.4-0.3 7.9-3.9 7.9-8.3c0-4.5-3.3-8.1-7.7-8.5v-35.7h151.6v36.1c-4 1.5-6.3 5.8-5.2 10c1.1 4.1 5.2 6.8 9.5 6c4.2-0.7 7.2-4.6 6.8-8.9c-0.4-4.3-4.1-7.6-8.4-7.6h-0.1v-35.6h128.6l-0.2 35.8c-4.3 1-7.2 5.1-6.6 9.5c.6 4.4 4.5 7.5 8.9 7.3c4.5-0.3 7.9-4 8-8.4c0-4.4-3.3-8.1-7.8-8.5l.2-35.7h53.2v36.3c-4.4 .9-7.3 5-6.7 9.4c.7 4.4 4.6 7.6 9 7.3c4.4-0.3 7.9-3.9 7.9-8.4c.1-4.4-3.3-8.1-7.7-8.5v-93.2h49c1 4.3 5.2 7.1 9.5 6.3c4.4-0.7 7.4-4.6 7-9c-0.4-4.4-4.1-7.7-8.5-7.7c-4.4 .1-8 3.5-8.3 7.9h-16.4v-70.2Zm8.1-7.7c3.2 0 5.9 2.6 5.9 5.9c0 3.2-2.7 5.8-5.9 5.8c-3.2 0-5.9-2.6-5.9-5.8c.1-3.3 2.7-5.9 5.9-5.9Zm-1-138.5c3.2 0 5.9 2.6 5.9 5.8c0 3.3-2.7 5.9-5.9 5.9c-3.2 0-5.9-2.6-5.9-5.9c.1-3.2 2.7-5.8 5.9-5.8Zm-0.1-34.7c2.3 0 4.5 1.4 5.4 3.6c.9 2.2 .4 4.7-1.3 6.4c-1.7 1.7-4.2 2.2-6.4 1.3c-2.2-0.9-3.6-3.1-3.6-5.5c0-1.5 .6-3 1.7-4.1c1.1-1.1 2.6-1.7 4.2-1.7Zm-512.3 50.5c-2.3 0-4.5-1.4-5.4-3.6c-0.9-2.2-0.4-4.7 1.3-6.4c1.7-1.6 4.2-2.1 6.4-1.2c2.2 .9 3.6 3 3.6 5.4c0 3.2-2.6 5.8-5.8 5.8Zm-0.1 148.4c-2.3 0-4.5-1.4-5.4-3.6c-0.9-2.2-0.4-4.7 1.3-6.4c1.7-1.7 4.2-2.2 6.4-1.3c2.2 .9 3.6 3.1 3.6 5.4c0 3.3-2.6 5.9-5.8 5.9Zm58.8-7.1h-29.2v-145.3h29.2Zm7.6 162.9c0 2.4-1.4 4.5-3.6 5.4c-2.2 .9-4.7 .4-6.4-1.2c-1.7-1.7-2.2-4.2-1.2-6.4c.9-2.2 3-3.7 5.4-3.7c1.5 0 3 .7 4.2 1.8c1.1 1.1 1.7 2.6 1.7 4.1Zm332.1-450.2v135.3h-11v-135.3Zm0 137.8v136.1h-11v-136.1Zm-17.5-189.6c0-2.4 1.4-4.6 3.6-5.5c2.2-0.9 4.7-0.4 6.4 1.3c1.7 1.7 2.2 4.2 1.2 6.4c-0.9 2.2-3 3.6-5.4 3.6c-3.2 0-5.8-2.6-5.8-5.8Zm5.2 328.2h12.3v11.3h-129v-11.3h116.8Zm-116.8 55v-41.2h129l-0.1 41.3Zm128.9 2.6v12.6h-128.8v-12.6Zm-67-322v-12h53.6v12h-53.3Zm53.6-43.8v29.3h-53.6v-29.2Zm-60.1-20.1c0-2.4 1.4-4.5 3.6-5.4c2.2-0.9 4.7-0.4 6.4 1.3c1.7 1.6 2.2 4.2 1.3 6.4c-1 2.2-3.1 3.6-5.5 3.6c-3.2-0.1-5.7-2.7-5.8-5.8Zm4 20.1v29.3h-122.7v-29.2Zm-68.2 43.8h-54.5v-12h122.7v11.9h-68.2Zm-61-63.9c0-2.4 1.4-4.5 3.6-5.4c2.2-0.9 4.7-0.4 6.4 1.3c1.7 1.6 2.2 4.2 1.3 6.4c-0.9 2.2-3.1 3.6-5.5 3.6c-3.2 0-5.8-2.6-5.8-5.8Zm4 20.1v29.3h-73.8v-29.2Zm0 31.8v12h-73.8v-12Zm-80.3-51.5c0-2.4 1.4-4.6 3.6-5.5c2.2-0.9 4.7-0.4 6.4 1.3c1.7 1.7 2.2 4.2 1.3 6.4c-0.9 2.2-3.1 3.6-5.5 3.6c-3.2 0-5.8-2.6-5.8-5.8Zm-8 51.5h12v12h-0.2v127.4h-11.8Zm-2.5 290.3v41.1h-36.7v-41.1Zm0-148.4v145.9h-36.7v-145.8Zm-36.7-2.5v-21.6h36.7v21.6Zm-14.7-36.7h51.3v12.6h-39.2v24.2h-12.1Zm0 39.3h12.1v145.8h-12.1Zm0 148.3h12.1v43.7h39.3v12.6h-51.4Zm.5 113.4v-54.4h50.8v54.4Zm58.6 46.5c0 2.4-1.4 4.5-3.6 5.5c-2.2 .9-4.8 .4-6.4-1.3c-1.7-1.7-2.2-4.2-1.3-6.4c.9-2.2 3-3.6 5.4-3.6c1.6 0 3.1 .6 4.2 1.7c1.1 1.1 1.7 2.6 1.7 4.1Zm-5.3-162.5v-145.7h11.8v134.4h139.9v11.3h-151.6Zm0 43.8v-41.2h12.1v-0.1h139.6v41.3Zm151.7 2.5v12.6h-151.6v-12.6Zm-151.6 69.7v-54.4h151.6v54.4Zm154.3 40.7c2.4 0 4.6 1.4 5.5 3.6c.9 2.2 .4 4.7-1.3 6.4c-1.7 1.7-4.2 2.2-6.4 1.3c-2.2-0.9-3.6-3.1-3.6-5.5c0-1.5 .6-3 1.7-4.1c1.1-1.1 2.6-1.7 4.1-1.8Zm-2.7-195.8v25.3h-137.3v-132.3h21.1c0-0.8 .1-1.7 .2-2.5h-21v-124.1h73.7v7.3c.9 0 1.7 .1 2.5 .2v-8h123.1v7.4c.9 0 1.7 .1 2.5 .1v-7.5h53.3v169.1h-20.9c.1 .8 .3 1.7 .4 2.5h20.5v87.8h-63.2v-14.7c-0.9-0.2-1.7-0.3-2.5-0.5v15.2h-49.8v-25.6c-0.9 0-1.7 .1-2.6 .3Zm2.6 155.1v-54.4h128.8l-0.2 54.4Zm136.2 46.5c0 2.4-1.5 4.6-3.7 5.5c-2.1 .9-4.7 .4-6.4-1.3c-1.6-1.7-2.1-4.2-1.2-6.4c.9-2.2 3-3.6 5.4-3.6c3.2 0 5.8 2.6 5.8 5.8Zm-4.7-347.5h53v32.6h-10.9v-20h-42.1Zm53 35.1v136.1h-10.9v-136.1Zm-53-20h39.6v17.5h-39.6Zm0 20h39.6v136.1h-39.6Zm0 152.4v-13.8h39.6v55h-39.7Zm-0.2 43.8h42.3v-57.6h11v47h-0.4v23.2h-52.9Zm-0.2 69.7l.2-54.4h52.9v54.4Zm60.9 47c0 2.4-1.4 4.5-3.6 5.4c-2.2 .9-4.8 .4-6.4-1.3c-1.7-1.6-2.2-4.2-1.3-6.4c.9-2.2 3-3.6 5.4-3.6c3.2 0 5.9 2.6 5.9 5.8Zm24.6-104h-29.2v-70.3h29.2Zm0-72.7h-29.2v-136.2h29.2Zm0-138.7h-29.2v-32.6h29.2Zm27.3 206c2.3 0 4.5 1.5 5.4 3.7c.9 2.2 .4 4.7-1.3 6.4c-1.7 1.6-4.2 2.1-6.4 1.2c-2.2-0.9-3.6-3-3.6-5.4c0-1.6 .6-3.1 1.7-4.2c1.1-1.1 2.6-1.8 4.2-1.8Z" fill="#fff"/><path class="cls-1" d="M1882.4 736.4c-0.1 .8-0.2 1.7-0.2 2.5h26.2c-0.1-0.8-0.1-1.7-0.1-2.5Z" fill="#fff"/><path class="cls-1" d="M1932.6 648v-23.2c-0.8 0-1.7-0.1-2.5-0.1v25.9c.8-0.1 1.7-0.3 2.5-0.6Z" fill="#fff"/><path class="cls-1" d="M1932.6 655.2c-0.8 .2-1.7 .4-2.5 .4v24.6c.8-0.1 1.7-0.2 2.5-0.3Z" fill="#fff"/><path class="cls-1" d="M1932.6 685c-0.8 .1-1.7 .2-2.5 .3v23c.8-0.2 1.7-0.3 2.5-0.4Z" fill="#fff"/><path class="cls-1" d="M2033.9 735.9h-25.9c-0.1 .8-0.2 1.7-0.2 2.5h26.2c0-0.8-0.1-1.6-0.1-2.5Z" fill="#fff"/><path class="cls-1" d="M2003 735.9l-23.5 .5h-0.1v2h23.4c0-0.8 .1-1.6 .2-2.5Z" fill="#fff"/><path class="cls-1" d="M2058.2 654.7c-0.1 0-0.2 0-0.4 .1v-5.2c.2 0 .3 0 .4-0.1v-25.2c-0.8 0-1.7 0-2.5-0.1v25.9c.6 0 1.2-0.1 1.8-0.4c0 1.7 .1 3.4 .2 5.1c-0.7 .2-1.4 .3-2 .4v24.6c.8-0.1 1.6-0.2 2.5-0.3Z" fill="#fff"/><path class="cls-1" d="M2058.2 684.5c-0.8 .1-1.7 .2-2.5 .3v23c.8-0.2 1.7-0.3 2.5-0.4Z" fill="#fff"/><path class="cls-1" d="M2101.2 735.9h-25.8c-0.1 .8-0.2 1.7-0.2 2.5h26.2c-0.1-0.8-0.1-1.6-0.2-2.5Z" fill="#fff"/><path class="cls-1" d="M2042.3 738.4v11.9h28.3v-28.3h-12.4v-9.5c-0.7 .1-1.5 .2-2.2 .4c-0.1 0-0.2 0-0.3 0v9.1h-13.4v13.9h-3.4c0 .9 .1 1.7 .2 2.5Zm2.5-13.9h10.9v11.4h-10.9Zm0 13.9h13.4v-13.9h9.9v23.3h-23.3Z" fill="#fff"/><path class="cls-1" d="M1945.8 723h-13.2v-10c-0.7 0-1.5 .2-2.2 .3c-0.1 0-0.2 0-0.3 0v9.7h-12.7v13.3h-4.1c0 .9 .1 1.7 .2 2.6h4v12.4h28.3v-12.9h19.8c0-0.8 .1-1.6 .2-2.5l-20 .4Zm-25.8 2.6h10.1v10.8h-10.1Zm23.3 10.7h-1h-0.1v2.1h1v10.4h-23.2v-9.9h12.6v-13.3h10.7Z" fill="#fff"/><path class="cls-1" d="M1993.4 770.4c.9-0.1 1.7-0.3 2.6-0.7v-25.1c-0.9-0.1-1.7-0.1-2.6-0.2Z" fill="#fff"/><path class="cls-1" d="M1993.4 802c.9-0.1 1.7-0.2 2.6-0.3v-24.7c-0.9 .2-1.7 .4-2.6 .4Z" fill="#fff"/><path class="cls-1" d="M1996 810.6c-0.9 .1-1.7 .2-2.5 .3v23c.8-0.1 1.6-0.3 2.5-0.4Z" fill="#fff"/><path class="cls-1" d="M2065.3 780.9c.1 .8 .2 1.7 .2 2.5h20.4c-0.2-0.8-0.3-1.7-0.4-2.5Z" fill="#fff"/><path class="cls-1" d="M2045.7 780.9v17.3c.9 0 1.7 0 2.6 0v-14.8h12.2c-0.1-0.8-0.2-1.7-0.3-2.5Z" fill="#fff"/><path class="cls-1" d="M2045.7 823.7c.9 .2 1.7 .3 2.6 .4v-21c-0.9 0-1.7 0-2.6 0Z" fill="#fff"/><path class="cls-1" d="M2045.7 850.9c.9 .1 1.7 .3 2.6 .4v-22.1c-0.9-0.1-1.7-0.2-2.6-0.4Z" fill="#fff"/><ellipse cx="2276.3" cy="2738.2" class="cls-6" rx="1565" ry="121.8" fill="#c9c7c3"/><rect class="cls-7" width="56.9" height="892.7" fill="#575758" transform="translate(5383.7,4262.9) rotate(180) translate(2663.4,1685.1)"/><path class="cls-8" d="M2748 2499.6h-112.3v-174.5c0-0.7 .3-1.3 .7-1.8c.5-0.5 1.2-0.8 1.9-0.8h107.1c.7 0 1.4 .3 1.9 .8c.5 .5 .7 1.1 .7 1.8v174.5Z" fill="#979390"/><path class="cls-9" d="M2691.8 2499.6v61.3l321.1 45.9v-29l-264.9-78.2h-56.2Z" fill="#716e6c"/><path class="cls-10" d="M2977.8 2638.8c0 16.8 13.7 30.5 30.6 30.5c16.8 0 30.5-13.7 30.5-30.6c0-16.8-13.7-30.5-30.5-30.5c-8.1 0-15.9 3.2-21.6 9c-5.7 5.7-9 13.4-9 21.5Z" fill="#53504f"/><path class="cls-11" d="M3003.9 2623.7h9.1v-45.9l-9.1-2.7v48.6Z" fill="#b7b4b2"/><path class="cls-9" d="M2691.8 2499.6v61.3l-321 45.9v-29l264.9-78.2h56.1Z" fill="#716e6c"/><path class="cls-10" d="M2405.8 2638.8c0 16.8-13.6 30.5-30.5 30.5c-16.8 0-30.5-13.7-30.5-30.6c0-16.8 13.7-30.5 30.5-30.5c8.1 0 15.9 3.2 21.6 9c5.7 5.7 8.9 13.4 8.9 21.5Z" fill="#53504f"/><path class="cls-10" d="M2722.4 2638.8c0 16.8-13.7 30.5-30.6 30.5c-16.8 0-30.5-13.7-30.5-30.6c0-16.8 13.7-30.5 30.5-30.5c8.1 0 15.9 3.2 21.6 9c5.8 5.7 9 13.4 9 21.5Z" fill="#53504f"/><path class="cls-11" d="M2379.8 2623.7h-9.1v-45.9l9.1-2.7v48.6Z" fill="#b7b4b2"/><rect x="2687.3" y="2577.8" class="cls-12" width="9.1" height="45.9" stroke-width="2px" stroke="#000" stroke-miterlimit="10" fill="#fff"/><rect class="cls-11" width="530.6" height="362.5" rx="14.8" fill="#b7b4b2" transform="translate(5383.7,3387.1) rotate(180) translate(2426.5,1512.3)"/><rect class="cls-8" width="506" height="345.6" rx="14.1" fill="#979390" transform="translate(5383.7,3370.2) rotate(180) translate(2438.9,1512.3)"/><path class="cls-8" d="M2691.8 2135.3c226.5 0 293.6-24.4 303.4-56.7c10.2 41.4-33.3 76-303.4 76c-270 0-313.5-34.6-303.3-76c9.7 32.3 76.9 56.7 303.3 56.7Z" fill="#979390"/><path class="cls-11" d="M2400.7 2032c-30.7 52.2-36.9 103.3 291.1 103.3c328 0 321.9-51.2 291.2-103.3c-25.4-43.1-59.8-72.9-291.1-72.9c-231.4 0-265.8 29.8-291.2 72.9Z" fill="#b7b4b2"/><path class="cls-13" d="M2633.2 1160.6c-15.4 19-24.8 46.8-17.8 69.5c2.9 9.7 8.5 18 9.3 28.4c1 12.4-5.4 25-13.1 34.7c-7.7 9.8-17 17.7-24.4 27.8c-20.1 27.3-23 66-16.8 98.8c2.1 11.3 5.3 22.5 11.3 31.3c8.2 12.1 20.9 18.9 33.6 23.8c27.8 10.9 58.8 15.1 88.5 5c44.1-14.9 78.5-58.2 107.4-101.4c28-41.7 54.8-88.7 57.8-139.4c2.9-49.8-19.4-97.1-54.9-120.6c-53.1-35.3-134.9-14.5-180.9 42.1Z" fill="#42210b"/><path class="cls-14" d="M2640.1 1474.9c-12.7-5-25.4-11.7-33.6-23.8c-6-8.8-9.2-20-11.3-31.3c-6.2-32.8-3.3-71.5 16.8-98.9c7.4-10 16.7-18 24.4-27.7c7.7-9.7 14.1-22.3 13.1-34.7c-0.8-10.4-6.4-18.8-9.3-28.4c-7-22.7 2.5-50.5 17.9-69.5c27.6-34 68.2-55.1 107.7-58.8c-46.6-4.7-99.1 17.5-132.6 58.8c-15.4 19-24.8 46.8-17.8 69.5c2.9 9.7 8.5 18 9.3 28.4c1 12.4-5.4 25-13.1 34.7c-7.7 9.8-17 17.7-24.4 27.8c-20.1 27.3-23 66-16.8 98.8c2.1 11.3 5.3 22.5 11.3 31.3c8.2 12.1 20.9 18.9 33.6 23.8c20.6 8 43 12.5 65.4 10.1c-13.9-1.5-27.6-4.9-40.6-10.1Z" fill="#54330e"/><ellipse cx="2692.9" cy="1960.3" class="cls-15" rx="127.2" ry="95.3" stroke="#fff" stroke-width="2px" fill="#1d4852" stroke-miterlimit="10"/><path class="cls-16" d="M2929.4 1970.3c0 0-106.6-66.3-175.8-27.2c-56.1 31.9-113.2 62.2-168.4 95.8c-36.4 22.1-79.3 41.3-104.4 77.2c-24.3 34.6-21 78.8-14.3 118.3c14 82 24.4 163.9 27 247.2h77.7c2.3-14.4 5.5-31.6 9.7-52.8c9.6-49.2 16.2-99.3 16.8-149.5c.3-24.4-13.6-76.3 10.8-90c24-13.4 50.6-19.5 77.1-25.6c45.8-10.5 101.5-20.6 149.3-34.8c103.7-30.7 110.6-95.4 94.5-158.6Z" fill="#27606d"/><path class="cls-17" d="M2580.9 2614.8c-1.6-9.6-4-20.4-7-33.2c-7-31-12.9-37.2-2.7-100h-77.7c1.3 42 .4 75.1-3.3 85.2c-3.9 10.6-13.4 21.8-24.2 32c42.8 .9 80.1 28.4 72.8 62h36.8c8.1-13.2 8.4-27.1 5.3-46Z" fill="#efb58e"/><path class="cls-18" d="M2538.8 2660.9h-132.5c0 0 5.2-19.2 19-29.4c8.1-6 25.6-18.3 40.7-32.7c42.8 .9 80.1 28.4 72.8 62.1Z" fill="#78474a"/><rect x="2406.3" y="2660.9" class="cls-19" width="169.4" height="8.4" fill="#5b383b"/><path class="cls-20" d="M2525.9 1845.4c0 0 61.8 10.8 118.9 70.5c53.7 56.2 6.9 54.5 17.3 129.5c6.7 48.4-2.8 169.5-3.3 262.4h-99.9c-17.4-42.6-31.8-86-35.4-132.9c-6.6-86.9 1.4-98.8-19-114.2c-20.4-15.3-99.3-125.7 21.4-215.3Z" fill="#327f94"/><path class="cls-16" d="M2497.8 1870.3c8.6-9.2 18-17.5 28.1-24.9c0 0 61.8 10.9 118.9 70.5c53.7 56.2 6.9 54.5 17.3 129.5c-12.6-68.7-85-202.5-164.3-175.1Z" fill="#27606d"/><path class="cls-21" d="M2497.8 1870.3c8.6-9.2 18-17.5 28.1-24.9c0 0 61.8 10.9 118.9 70.5c53.7 56.2 6.9 54.5 17.3 129.5c-12.6-68.7-85-202.5-164.3-175.1Z" stroke="#27606d" fill="none" stroke-miterlimit="10"/><path class="cls-18" d="M2714.1 2552.4c12.1 25.1 31.4 48.8 24.7 67.2c-9.3 25.6-31.5 44.3-46.3 40.9c-14.9-3.4-52.9-27.3-59.8-51.1c-1.7-5.8-2.3-15.5-2.8-27.8c23.4-23.1 60-28.5 84.2-29.2Z" fill="#78474a"/><path class="cls-17" d="M2670.3 2418.5c26.3 49.5 33.2 68.2 35 104c.5 10 4.1 20.1 8.8 29.9c-24.2 .7-60.8 6.1-84.2 29.2c-1.5-38.6-1.3-104.1-24.8-164.8c-14.4-36.8-31.3-72.6-46.2-109h99.9c-0.3 50.8 2.2 93.3 11.5 110.7Z" fill="#efb58e"/><path class="cls-22" d="M2954 1417.1c32.5 19.7 58 115 70.7 191l-104.5 39l12.8-220Z" fill="#f77f0f"/><path class="cls-23" d="M2961 1631.8l-40.7 15.2l11.3-195.7c-0.2 4.1 21.8 135.3 29.4 180.5Z" fill="#d86d0e"/><path class="cls-24" d="M2432.3 1755.2c28.4-48.1 42.8-132.6 42.8-132.6l60.4 64.6l-18.2 68Z" fill="#ffc39a"/><path class="cls-25" d="M2509.2 1659.1c0 0-4.7 20.2-13.4 49.1c-6.4 21.1-12.2 14.4-41.8 26.2l-9 38.4h64.2l26.3-85.6Z" fill="#ec996b"/><path class="cls-22" d="M2535.5 1687.2l-90.5-96.8c0 0 53.5-139.9 90.5-178c0 0 39.5 81.3 25.5 152.9c-14.1 71.6-25.5 121.9-25.5 121.9Z" fill="#f77f0f"/><path class="cls-23" d="M2536.4 1462h17.1c8.1 29.3 14.5 67.5 7.4 103.3c-14 71.7-25.4 121.9-25.4 121.9l-26.3-28c10.8-46.9 35.6-161.9 27.2-197.2Z" fill="#d86d0e"/><path class="cls-26" d="M2857.8 1388.3c-84.5 0-73.2 25.5-183.5 7.7c-110.2-17.9-143.1 14.6-148.1 29.2c-4.9 14.6 41.2 73 14.8 173.6c-26.3 100.6-15.1 246.6-15.1 246.6c0 0 82.6 32.4 143.5 97.3c60.9 64.9 105.3-51.9 260 27.6c0 0 23-64.9-8.2-154.1c-31.3-89.2 14.4-142.8 22.8-251.5c8.4-108.7-12.5-112.1 10-147.6c0 0-27.9-28.8-96.2-28.8Z" fill="#ffe696"/><path class="cls-24" d="M2935.3 1772.8c0 0-19.2-33-26-43c-6.8-10.1-74-15.7-84.8-14.6c-10.9 1.1-18.3 57.5-18.3 57.5Z" fill="#ffc39a"/><path class="cls-17" d="M2454 1734.4c25.6-13.9 52.2 2.9 82.6-7.1l-12 45.5h-99.3c3.5-16.4 14-30.4 28.7-38.4Z" fill="#efb58e"/><path class="cls-22" d="M2783.4 1397.2c-19.3 4.2-38.6 7.4-78.4 3c-11.9 8.6-19.6 12.2-23.4 17.3c-3.1 4.2-16.1 26.2 3.3 29.3c19.5 3.2 72.3 9.5 95.8-3.1c23.6-12.6 59.2-38.7 59.2-38.7Z" fill="#f77f0f"/><path class="cls-24" d="M2465.2 1772.8c0 0 19.2-33 26-43c6.8-10.1 74-15.7 84.9-14.6c10.8 1.1 18.2 57.5 18.2 57.5Z" fill="#ffc39a"/><path class="cls-17" d="M2708.7 1307.7c8.1 13.6 14.5 39.7 16.1 55.3c1.2 12.1 3 31-2.2 42.3c-4.2 9.3-14.1 8.5-22.2 15.7c-8.6 7.6 6 11.5 10.8 12.3c11.5 2 22.1-1.1 33.9-1.7c13.8-0.7 25.1-5.4 36.7-12.6c1.5-0.7 2.8-1.8 3.8-3.1c1.2-1.8 1.2-4 1.3-6.2c.5-37.7 1.1-75.4 1.6-113.2Z" fill="#efb58e"/><path class="cls-25" d="M2778.9 1321.5l-66-5.7c0 0 27.3 52.9 66 5.7Z" fill="#ec996b"/><path class="cls-24" d="M2671.5 1293.4c10.8 12 28.5 18.9 43.1 23.2c24.5 7.1 50.6 9.5 75.7 4.8c39.7-7.4 64.5-30.6 85.2-63.7c19.5-31.2 37.7-70.5 27.9-108c-4.7-18.2-15.1-34.6-27.6-48.6c-4.2-4.8-8.7-9.2-13.5-13.3c-61.5-51-148.1-5.5-173.2 61c-11.4 30.1-25.7 60-28.9 92.4c-1.5 14.5-1.3 32.4 6.3 45.3c1.4 2.5 3.1 4.8 5 6.9Z" fill="#ffc39a"/><path class="cls-24" d="M2799.2 1317.9c-25.1 4.6-51.2 2.2-75.7-4.9c-14.6-4.3-32.3-11.2-43.1-23.2c-1.9-2.1-3.6-4.3-5-6.8c-7.6-12.9-7.7-30.9-6.3-45.3c3.2-32.4 17.5-62.3 28.9-92.4c12.1-32 38.4-59.1 69.3-73c-34.7 12.4-64.9 41.5-78.2 76.6c-11.4 30.1-25.7 60-28.9 92.4c-1.4 14.4-1.3 32.4 6.3 45.3c1.4 2.5 3.1 4.7 5 6.8c10.8 12 28.5 18.9 43.1 23.2c24.5 7.1 50.6 9.5 75.7 4.9c9.4-1.7 18.6-4.6 27.3-8.5c-6 2.1-12.2 3.7-18.4 4.9Z" fill="#ffc39a"/><path class="cls-27" d="M2845.7 1283.3c2.8 9.1 6.7 13.5 10.7 15.3c2.9-3 5.8-6.1 8.7-9.3Z" stroke-width="2px" stroke="#000" opacity=".2" stroke-miterlimit="10" fill="#fff"/><path class="cls-12" d="M2862.7 1225.6c8.3-4.8 18.7-4 26.3 1.9c7.5 5.9 10.8 15.7 8.2 25c-2 7-7 12.7-12.4 17.7c-4.1 3.9-8.7 7.6-14.1 9.5c-9.8 3.1-20.5-0.2-26.8-8.4Z" stroke-width="2px" stroke="#000" stroke-miterlimit="10" fill="#fff"/><path class="cls-27" d="M2873.2 1255.3c-2.6 5.2-7.1 8-10.1 6.5c-2.9-1.4-3.2-6.9-0.5-12c2.7-5 7.2-8 10.1-6.5c3 1.5 3.2 6.9 .6 12Z" stroke-width="2px" stroke="#000" opacity=".2" stroke-miterlimit="10" fill="#fff"/><path class="cls-28" d="M2768.9 1236.1c8 10.6 18 19.7 29.3 26.7c7.4 4.4 16.4 12.6 12.1 24.1c-2.5 6.8-8.5 9.8-13.5 13.2c-24 16.1-36.8 62.3-24.4 88.3c1.9 4 4.3 7.6 4.9 12.5c1.6 12.7-8.4 25-16.8 34.3c-14.7 16.5-28.3 36.1-36.9 58.9c-8.5 22.8-11.5 49.1-5 69.1c6.1 18.7 19.4 29.9 33.4 37.2c31.7 16.6 71.2 16.5 105.7-9.9c34.5-26.4 61.1-82.2 56.2-130c-1.4-13-4.8-24.8-5.7-38c-1.6-24 12.6-45 13.4-70c.7-21-4.2-33-13.6-45.4c-9.2-12.2-3-20.3 6.4-36.4c8.2-14.1 12.7-30.9 17-47.3c4.1-15.4 8.3-31.2 8.7-46.8c1-32.7-14.2-57.7-30.8-76.8c-5.8-6.7-11.8-13.1-18.9-17.5c-26.2-16.2-61.1-28.1-92.4-24.4c-16.3 1.9-34.5 8.4-46.9 26.3c-15.6 22.6-16.7 55.3-12.1 81.2c5.1 27.6 15.5 52 29.9 70.7Z" fill="#301808"/><path class="cls-13" d="M2792.3 1600.4c-14-7.3-27.3-18.5-33.4-37.2c-6.5-20-3.6-46.3 5-69.1c8.6-22.8 22.2-42.4 36.9-58.9c8.3-9.3 18.4-21.6 16.8-34.3c-0.6-4.9-3-8.6-4.9-12.5c-12.4-26 .4-72.2 24.4-88.3c5-3.4 11-6.4 13.5-13.2c4.3-11.5-4.7-19.7-12.1-24.2c-11.4-6.9-21.3-16-29.4-26.6c-14.3-18.7-24.7-43-29.7-70.7c-4.7-25.9-3.6-58.6 12.1-81.2c10.5-15.2 25.2-22.2 39.4-25.1c-10.8-2-21.9-2.4-32.8-1.2c-16.3 1.9-34.5 8.4-46.9 26.3c-15.6 22.6-16.7 55.3-12.1 81.2c5 27.6 15.4 52 29.8 70.7c8 10.6 18 19.7 29.4 26.6c7.3 4.5 16.4 12.7 12.1 24.2c-2.6 6.8-8.5 9.8-13.5 13.2c-24 16.1-36.8 62.3-24.5 88.3c1.9 4 4.3 7.6 5 12.5c1.6 12.7-8.5 25-16.8 34.3c-14.8 16.5-28.4 36.1-37 58.9c-8.5 22.8-11.4 49.1-5 69.1c6.1 18.7 19.5 29.9 33.5 37.2c19.7 10.4 42.6 14.2 65.3 9.2c-8.7-1.9-17.2-5-25.1-9.2Z" fill="#42210b"/><path class="cls-14" d="M2909.4 1099.8c-5.8-6.8-11.9-13.2-18.9-17.5c-26.3-16.3-61.1-28.1-92.4-24.4c-1.4 .2-2.8 .4-4.3 .6c22.6 3.3 45.1 12.4 63.5 23.8c7 4.3 13.1 10.7 18.9 17.5c16.5 19.1 31.8 44.1 30.8 76.8c-0.5 15.5-4.6 31.4-8.7 46.8c-4.3 16.4-8.8 33.1-17 47.3c-9.4 16.1-15.6 24.2-6.4 36.4c9.3 12.4 14.2 24.5 13.6 45.4c-0.8 25-15 46-13.5 70c.9 13.2 4.4 25.1 5.7 38c5 47.7-21.6 103.6-56.1 130c-14.1 10.7-29 17.1-43.8 19.8c25.1 4.5 52.3-1 77-19.8c34.5-26.4 61.1-82.3 56.1-130c-1.3-13-4.8-24.8-5.7-38c-1.5-24 12.7-45 13.5-70c.7-21-4.3-33-13.6-45.4c-9.2-12.2-3-20.3 6.4-36.4c8.2-14.2 12.7-30.9 17-47.3c4.1-15.4 8.2-31.3 8.7-46.8c1-32.7-14.3-57.7-30.8-76.8Z" fill="#54330e"/><path class="cls-29" d="M2936.8 1191.3c-69.3-5.7-137.8-18.9-204.7-37.5c-31.4-8.7-53.8-10.9-75.7-35c21.3-15.5 33.2-15.9 54.9-19.6c9.9-1.6 19.8-3.3 29.8-3.9c4.1-0.4 8.2-0.2 12.2 .7c11 2.8 18.6 13.2 29.4 16.7Z" opacity=".6" fill="#7a553c"/><path class="cls-30" d="M2942.1 1193.1c0 0 59-137.6-101.4-194.4c0 0-114-24.8-164.1 101.6Z" fill="#ffb500"/><path class="cls-31" d="M2942.1 1193.1c0 0-344.9-89.6-307.2-93.3c24.7-2.5 41.7 .5 41.7 .5Z" fill="#ffd366"/><path class="cls-32" d="M2730.9 1121.8l5-0.8c-0.3 14.4 15.1-122.4 150.9-100.5l1.4-3.6l-30.3-10.2l-43-1l-19.9 8.3l-26.5 11l-22.7 18l-7 14.7l-10.8 21.8Z" fill="#ce8046"/><path class="cls-33" d="M2888.2 1016.9c0 0-142.7-42.3-157.3 104.9l-30.1-10.7c0 0 9.3-139.2 154-109.6Z" fill="#ffdb85"/><path class="cls-25" d="M2681.1 1212.2c-1.7 1.5-3.4 3.4-3 5.5c.3 1.4 1.2 2.6 2.3 3.4c3.3 2.7 7.2 4.6 11.3 5.7c2.2 .6 4.5 .6 6.6-0.2c3.4-1.6 4.6-5.7 5-9.4c1-8.4 .8-18.2-1.3-26.4c-7.5 6-13.8 14.8-20.9 21.4Z" fill="#ec996b"/><path d="M2731.9 1199.1c-1.3 4.8-4.2 8.1-6.4 7.5c-2.2-0.6-2.9-5-1.6-9.7c1.4-4.7 4.2-8.1 6.4-7.5c2.2 .6 2.9 5 1.6 9.7Z"/><path d="M2691 1186c-1.3 4.8-4.2 8.1-6.4 7.5c-2.2-0.7-2.9-5-1.6-9.7c1.4-4.8 4.2-8.1 6.4-7.5c2.2 .6 3 5 1.6 9.7Z"/><path d="M2724.2 1172.3c0 0 19.2-5.2 23.4 12.7c0 0-2.7-26.8-23.4-12.7Z"/><path d="M2703.7 1164.7c0 0-7.3-17.6-18.4-2.3c0 0 12.9-22.6 18.4 2.3Z"/><path d="M2695.7 1264.2c0 1.2-0.5 2.4-1.3 3.2c-0.9 .9-1.9 1.6-3.1 1.9c-1.2 .3-2.4 .3-3.6 0c-1.2-0.3-2.2-1.1-2.8-2.1l.1-0.2c3.7 1.6 8.1 .4 10.6-2.9Z"/><path class="cls-12" d="M2649.4 1303.2c.9-2.4 2.3-4.6 4.3-6.3c2-1.6 5-2.2 7.1-0.9c2.9 1.8 3.3 5.7 3.4 9l.6 28c.1 2.3 0 5-1.8 6.4c-2.7 2.1-14-13.4-15-15.4c-3.2-6.3-1.2-14.6 1.4-20.8Z" stroke-width="2px" stroke="#000" stroke-miterlimit="10" fill="#fff"/><path class="cls-25" d="M2649.4 1303.2c.9-2.4 2.3-4.6 4.3-6.3c2-1.6 5-2.2 7.1-0.9c2.9 1.8 3.3 5.7 3.4 9l.6 28c.1 2.3 0 5-1.8 6.4c-2.7 2.1-14-13.4-15-15.4c-3.2-6.3-1.2-14.6 1.4-20.8Z" fill="#ec996b"/><path class="cls-20" d="M2646.7 1332.1l-6.1-4.7l42.7-54.5l6.8-8.7l6 4.7l-6.9 8.8l-42.5 54.4Z" fill="#327f94"/><path class="cls-16" d="M2683.3 1272.9l6.8-8.7l6 4.7l-6.9 8.8l-5.9-4.8Z" fill="#27606d"/><path class="cls-21" d="M2683.3 1272.9l6.8-8.7l6 4.7l-6.9 8.8l-5.9-4.8Z" stroke="#27606d" fill="none" stroke-miterlimit="10"/><path class="cls-24" d="M2647.1 1308.1c-4.1-4.9-8.9-9-14.5-8c-3.3 .7-6 3.4-7.5 6.4c-1.5 3-2.1 6.4-2.6 9.8c-2.3-1.4-5.4 0-7.1 2.1c-3.5 4.2-3.7 10.1-0.5 14.5c-4.8-0.4-8.8 4.7-8.4 9.5c.4 4.8 4.3 8.7 8.8 10.6c-4.5 .3-6.6 6.3-4.8 10.4c2.1 4.6 9.8 6.4 10.7 10.7c.4 2-0.6 4.1-1.5 6c-3.3 7.3-5.3 15.6-3.2 23.3c2.1 7.7 9.2 14.4 17.2 14.1c10.1-0.4 16.6-10.7 20.5-20c6.5-15.6 15.4-37.9 14.1-55.2c-0.8-9.5-6.9-17-13-23.8c-2.4-2.6-5.1-6.7-8.2-10.4Z" fill="#ffc39a"/><path class="cls-24" d="M2620.9 1409.8c8.7 74-6 148.6-4.5 223.1c.1 6.6 .5 13.7 4.4 19.2c2.9 4.1 7.6 6.8 12.5 8.3c17.6 5.2 38.3-6.9 42.4-24.8c1.5-6.4 1.1-13.1 .6-19.7c-5.2-73.7-14.4-147.1-27.5-219.9Z" fill="#ffc39a"/><path class="cls-34" d="M1983.1 1623.7l-7.8-5.1c0-0.1-0.1-0.1-0.1 0c-0.1 0-0.1 0-0.1 0l-6.5 9.7l-3.4-2.3c-0.2-0.2-0.5-0.1-0.6 .1l-23.2 34.8c-1.6-4.4-3.3-8-5-10.2c-10.9-14-121.7-129.6-121.7-129.6l-96.4 42.1l112-48.9c.6-0.3 1-1 .8-1.6c-1.3-6.4-8.9-38.3-28.5-56.5c-0.5-0.5-1.2-0.5-1.8-0.2l-16.8 9.5c-13.1-37.5-55.6-97.8-53.9-108.7c19.3-122.6-20.3-248.9-68.6-303c0 0 0 .5-0.2 1.3c-19.5-19.5-45.6-33-77.4-45l1.2-0.4l-6.3-1.8c0-0.3 0-0.6 0-0.9c0-2.9 .2-5.7 .5-8.6c5.4 .6 16.5 2.1 35.9 2.6c.9 0 1.8 0 2.7 0h.7c.9 0 1.7-0.1 2.6-0.2h.1c.9-0.1 1.8-0.3 2.7-0.5l.5-0.1c.9-0.1 1.7-0.3 2.5-0.6h.1c.9-0.2 1.8-0.5 2.7-0.8l.3-0.1c.8-0.3 1.7-0.7 2.5-1c.9-0.4 1.8-0.8 2.6-1.3c12.7-6.8 22.2-20.2 27.2-35.6c5.9-17.9 28-112 28-112c2.2-6.5 3.7-13.3 4.5-20.1c21.5-2.4 38.7-6.1 42.8-11.6c11.8-15.6-36.9-55-36.9-55c-2.2-0.2-4.4-0.3-6.5-0.5c2.2 .2 4.3 .3 6.5 .5c0-1.1-0.1-2.1-0.1-3.1c0-1-0.1-1.9-0.2-2.8c-3.5-63-47-98.5-97.1-107.4c-43.4-27.4-103.6-6.3-119.5 27.1c-0.5 1.1-1 2.3-1.5 3.4l-0.1 .4c-0.2 .4-0.3 .9-0.5 1.3c0 .1 0 .3-0.1 .4c-0.2 .6-0.3 1.1-0.5 1.7l-0.2 .2l-1.3 1.2l-0.8 .8c-0.5 .5-0.9 .9-1.4 1.4l-0.7 .8c-0.5 .5-0.9 1-1.4 1.4c-0.2 .2-0.4 .5-0.6 .7c-1.7 1.9-3.4 3.9-5.1 6c-0.1 .1-0.2 .2-0.2 .3c-0.4 .5-0.8 1-1.2 1.5l-0.7 1c-0.4 .4-0.7 .9-1 1.4l-0.8 1.1l-1 1.4l-0.9 1.2l-0.9 1.3l-0.8 1.3c-0.3 .5-0.6 .9-0.8 1.4c-0.3 .5-0.6 .9-0.8 1.3c-0.3 .4-0.6 .9-0.8 1.4l-0.8 1.4c-0.3 .4-0.5 .9-0.8 1.4c-0.2 .5-0.5 .9-0.8 1.4c-0.2 .4-0.4 1-0.7 1.4l-0.7 1.4l-0.7 1.5c-0.2 .5-0.5 1-0.7 1.5l-0.6 1.5l-0.7 1.5c-0.2 .5-0.4 1-0.6 1.5c-0.2 .5-0.5 1-0.7 1.5c-0.2 .6-0.3 1-0.5 1.6c-0.2 .5-0.4 1-0.6 1.6l-0.6 1.5c-0.2 .5-0.3 1.1-0.5 1.6l-0.5 1.6l-0.5 1.7c-0.2 .5-0.3 1-0.5 1.6c-0.2 .5-0.3 1.1-0.5 1.6c-0.1 .6-0.3 1.1-0.4 1.7c-0.1 .5-0.3 1.1-0.4 1.7c-0.2 .6-0.3 1.1-0.4 1.6c-0.1 .6-0.3 1.2-0.4 1.8c-0.1 .6-0.2 1.1-0.3 1.7c-0.2 .5-0.3 1.2-0.4 1.8c-0.1 .6-0.2 1.1-0.3 1.7l-0.3 1.8l-0.3 1.7c-0.1 .6-0.1 1.3-0.2 1.9c-0.1 .6-0.2 1.1-0.3 1.7c0 .6-0.1 1.3-0.2 2c0 .6-0.1 1.1-0.2 1.7c0 .6-0.1 1.3-0.1 2c-0.1 .7-0.1 1.1-0.2 1.7c0 .6 0 1.4-0.1 2c0 .7 0 1.2-0.1 1.8c0 .5 0 1.4-0.1 2.1c0 .7 0 1.1 0 1.7c0 .7 0 1.5 0 2.2c0 .6 0 1.1 0 1.7c0 .8 0 1.6 0 2.4c0 .5 0 1 0 1.6c0 .8 .1 1.7 .1 2.6c0 .5 0 .9 .1 1.4c.1 1.3 .2 2.7 .3 4.1l.2-0.1c.6-0.2 2.2-0.6 4.6-1.2c2.3 23.6 9 48.2 16 69c-3.5 4.7-5.3 10.8-6.8 16.5c-2.3 8.8 3.2 19.7 9 26.7c2.7 3.2 11.3 6.4 18.1 7.1c.1 .2 .2 .3 .2 .3v-0.2h.6c1.7 10.8 3.3 20.7 4.6 27.9c1.4 8.2 5.5 15.6 11.6 21.1c.1 0 .1 .1 .1 .1c-10.2 14.5-17.6 23.8-25 31.8c-12.6 2.8-26.1 7.8-39.8 14.6c-29.7 13.6-60.5 36.6-89 68.1c-1 1.2-2.1 2.3-3.1 3.5c-11.4 10.4-21.8 21.9-30.9 34.3c-58.9 78.4-133.4 246-129.2 289.7c4.2 43.8 35.2 97 35.2 97c-6.8 8.9-7.7 24-7.7 32.3c.1 3.6 2.3 6.8 5.6 8.2c9.7 4.3 19.7 8 30 10.9c13.8 26.4 42.8 65.3 72.2 100c-31.2 244.5 62.7 612.1 62.7 612.1l-5 20.5c-9.8 40.1-13 81.6-9.7 122.8l21.5 277.2c1 12.5 9.1 19.2 20 23.2c.1 9.5 0 19.2-0.5 28.2c-0.9 17.1-12.8 28.9-12.2 37.6l.6 .3c-8.3 5.1-10.9 45-8.3 58.1c.1 1.6 .2 2.7 .2 2.8c0 1.8 19.7 3.4 48.4 4.2c1.4-3.1 3-6.1 4.8-9.1c12.9-17 25-33.9 41.4-47.5c4.4-3.7 8.9-7.4 13.5-11c1.5-5.6 3.5-11 5.9-16.3c-4.6-8.8-17.3-10.2-29.4-9.4c-4.1-7.1-4-21-2.3-34.8l34.3-5.7l21.3-451.2c0 0 13.5-175.8 25.6-312.3v.1l.4 1.3l.7 2.1c.2 .4 .3 .9 .5 1.4c.2 .7 .5 1.4 .7 2.1l.5 1.3l.7 2.2c0 .1 0 .2 .1 .3c.5 1.6 1.1 3.3 1.7 5l.5 1.5c.2 .6 .4 1.2 .6 1.8l.6 1.8c.2 .7 .4 1.3 .6 1.9c.2 .6 .4 1.2 .6 1.8l.6 1.9l.7 1.8l.6 1.9c32.5 98.6 68.3 221.9 55.6 252.8c-37.4 90.8-58 346.4-62.3 435.7c-0.5 9.1 8.1 17 19 22.7c5.9-4.6 11.8-9.2 17.7-13.7c8.1-25.9 25.3-48 48.3-62.4c21.9-48.2 45-95.9 74.6-140c19.3-105 39.4-216.7 44-251.5c12.7-93.8-9-263.7-33.4-408.3l94.6-157.1c4.2-6.9 2.8-15.8-3.1-21.3c27.3 14.3 48.8 25.6 51 30.7c4.8 11.2-10.3 31-7 53.5c3.2 22.6-6.7 39.8 9.7 41c16.4 1.1 26.3-29 26.3-29c0 0 .8 1.2 2.1 3.3l-38.6 58c-0.1 .2-0.1 .5 .2 .7l-13.1 36.2l28-26.3c.2 .1 .5 .1 .7-0.2l33-49.5c.9 2.2 1.6 4.5 2 6.9c.7 7.2-8.9 31.8-8.9 31.8c0 0-18.5 11.2-16.4 15.5c2.2 4.3 37.2-0.9 50.3-15.5c10.8-12 17.2-34.4 19.1-42c.5-1.7 .6-3.4 .3-5.1c-1-7.2-4.3-28.7-8.6-48.3l32.2-48.4c.1-0.1 .1-0.3 .1-0.4c-0.1-0.1-0.1-0.2-0.2-0.3l-3.4-2.3l6.4-9.6c.1 0 .2-0.2 .1-0.3c0-0.1-0.1-0.2-0.2-0.2Zm-304.1-84.3c2.5-5.7 4.4-11.6 5.8-17.6l.3 1.1c5.7 15.7 13.5 26 19.9 32.2Z" fill-rule="evenodd" opacity=".5" fill="#7d98ae"/><path class="cls-34" d="M1666.1 760.4l3.4 .1c-1.2 0-2.4 0-3.7-0.1h.3Z" fill-rule="evenodd" opacity=".5" fill="#7d98ae"/><path class="cls-34" d="M1691.3 761.3l-3.4-0.2h.1Z" fill-rule="evenodd" opacity=".5" fill="#7d98ae"/><path class="cls-34" d="M1683.9 760.9l-2.7-0.1h.2Z" fill-rule="evenodd" opacity=".5" fill="#7d98ae"/><path class="cls-34" d="M1676.6 760.7l-2.5-0.1h.5Z" fill-rule="evenodd" opacity=".5" fill="#7d98ae"/><path class="cls-13" d="M1569.4 758.2c0 0 75.1 74.9-3.6 90.5Z" fill="#42210b"/><path class="cls-35" d="M3366.1 1455.1l-45.1 304c-0.2 1.3 .2 2.6 1.1 3.6c.8 1 2.1 1.5 3.4 1.5h21.7c2.2 0 4.1-1.6 4.4-3.8l45.1-304c.2-1.3-0.2-2.6-1-3.6c-0.9-1-2.1-1.5-3.4-1.5h-21.8c-2.2 0-4.1 1.6-4.4 3.8Z" fill="#b6b6b6"/><path class="cls-36" d="M3366.1 1453.6c.3-2.2 2.2-3.8 4.4-3.8h21.8c1.3 0 2.5 .5 3.4 1.5c.8 1 1.2 2.3 1 3.6l-7.5 50.9l-5.9 7.3c-0.8 1-2 1.7-3.3 1.7c-1.3 0-2.6-0.5-3.4-1.4l-16.7-18Z" fill="#878787"/><path class="cls-36" d="M3106 1234.9c12.1 1 24.1-3.3 32.7-12l19.2-18.7c2.2-2.2 6.1-1.9 8.7 .7l33.8 34.2c2.5 2.6 2.8 6.5 .6 8.7l-19.1 18.7c-8.7 8.6-13.2 20.6-12.3 32.8c2.3 32.6-12.7 71.5-42.9 103.7c-2.8 3-8 2.6-11.4-0.9l-112.8-114.2c-3.4-3.5-3.8-8.7-0.7-11.4c32.6-29.8 71.7-44.4 104.2-41.6Z" fill="#878787"/><path class="cls-35" d="M3170.1 1270.2l203.1 219.1c1.7 1.9 4.2 2.9 6.7 2.8c2.5-0.1 4.9-1.3 6.5-3.3l8.2-10.2c2.7-3.4 2.6-8.2-0.4-11.4l-203-219.1c-1.9-2.1-9.8 1.1-14.8 7.3c-6.6 8.2-7.7 13.3-6.3 14.8Z" fill="#b6b6b6"/><path class="cls-36" d="M3351.6 1760.4c-0.3 2.2-2.2 3.8-4.4 3.8h-21.7c-1.3 0-2.6-0.5-3.4-1.5c-0.9-1-1.2-2.3-1.1-3.6l7.1-47.5h30.8Z" fill="#878787"/><path class="cls-37" d="M3174.6 1771h201.5c0-6.8-5.5-12.4-12.3-12.4h-176.9c-3.3 0-6.4 1.4-8.7 3.7c-2.3 2.3-3.6 5.4-3.6 8.7Z" stroke-width="2px" stroke="#000" fill="#444" stroke-miterlimit="10"/><path class="cls-38" d="M3370.2 1474.2c0 3 1.8 5.7 4.6 6.9c2.8 1.1 6 .5 8.1-1.7c2.2-2.1 2.8-5.3 1.7-8.1c-1.2-2.8-3.9-4.6-6.9-4.6c-2 0-3.9 .8-5.3 2.2c-1.4 1.4-2.2 3.3-2.2 5.3Z" fill="#2d2c2c"/><path class="cls-39" d="M3370.9 1471.4c0 4.2 3.3 7.5 7.5 7.5c4.1 0 7.4-3.4 7.4-7.5c0-4.1-3.3-7.4-7.5-7.4c-1.9 0-3.8 .7-5.2 2.1c-1.5 1.5-2.2 3.4-2.2 5.3Z" fill="#656565"/><path class="cls-18" d="M3361.9 1845h-2347.9c-35.1 0-68.7-11.5-93-31.8l-32.3-27c0-9.1 9.2-16.5 20.6-16.5h2557.3c11.3 0 20.5 7.4 20.5 16.5l-32.3 27c-24.2 20.3-57.8 31.8-92.9 31.8Z" fill="#78474a"/><path class="cls-40" d="M1014 1845h2347.9c35.1 0 68.7-11.5 93-31.8h-2533.9c24.3 20.3 57.9 31.8 93 31.8Z" fill="#42292b"/><path class="cls-19" d="M3295.5 1911.3h-2215.1c-36.7 0-66.4-29.7-66.4-66.3h2347.9c0 36.6-29.8 66.3-66.4 66.3Z" fill="#5b383b"/><path class="cls-18" d="M1120.8 2655.5c-8 0-14.6-7.2-14.9-16.2l-20.7-794.3h71.2l-20.8 794.3c-0.2 9-6.8 16.2-14.8 16.2Z" fill="#78474a"/><path class="cls-40" d="M1085.2 1845l1.7 66.3h67.7l1.8-66.3h-71.2Z" fill="#42292b"/><path class="cls-18" d="M3255.1 2655.5c8 0 14.6-7.2 14.8-16.2l20.8-794.3h-71.2l20.7 794.3c.3 9 6.9 16.2 14.9 16.2Z" fill="#78474a"/><path class="cls-40" d="M3290.7 1845l-1.7 66.3h-67.8l-1.7-66.3h71.2Z" fill="#42292b"/><path class="cls-41" d="M3641 1579.7c4.4-5.2 15.2-3 27.5 5.3c14.9 10.1 29.4 27.9 39.9 48.8c9.8 19.8 14.5 43.1 13.6 67.3c-0.3 8.8-1.2 16.4-2 22.5c-0.8 6.4-1.4 11.5-0.9 14.5c0 .1 0 .2 0 .3h-0.1c2.2 12.1 3.9 24.2 4.8 36.5c1.9 23.9 1.3 47.9-1.5 71.7c3.1-9.2 6.4-18.4 10.1-27.6c5.8-14.5 12.2-28.7 18.8-42.8c6.2-21 9.7-42.7 10.5-64.6c.4-11.8 0-23.6-1.2-35.4c-1.3-8.8-4.8-18.3-11.2-30.8c-5.4-10.5-11.8-21.8-19.4-34.9l-4.6-8c-9.4-16.3-15.7-29.2-19.3-39.6c-4.2-11.6-4.5-19.8-1.1-23.8c3.9-4.4 13.2-2.4 23.7 5.3c12.9 9.3 24.9 25.4 33 44.2c9.8 22.8 9.8 44.9 8 59.5c-0.8 6.6-2 13.2-3.5 19.7c-1.1 5.2-2 9.3-1.8 11.8c0 .1 0 .2 0 .3h-0.1c.9 10.6 1.2 21.2 .8 31.8c-0.6 16.3-2.7 32.5-6.3 48.4c6.9-14.2 13.9-28 20.9-41.8c8.6-19.1 13.2-39.7 13.7-60.6c0-2.5-0.2-5-0.8-7.5c-0.6-3.2-1.5-6.4-2.5-9.5c-1.1-3.5-2.4-7.3-3.8-11.4c-1.3-3.8-2.7-7.8-4.2-12.3c-3.4-10.8-8.5-29.5-3.1-33.3c2.3-1.5 6.4 .8 10.6 6c5 6.2 9.1 15.4 11.3 25.2c1.9 9.7 1.5 19.7-1.2 29.2c-1 3.4-2 6.3-2.8 8.6c-0.8 2.1-1.5 4.2-1.8 6.3c-0.5 15-3.1 29.9-7.6 44.1c9.1-17.9 18.3-36.2 27.1-54.7c7.7-24 10.8-49.2 9-74.3c-0.6-8-1.7-16-3.3-23.9c-1.5-6.6-4.7-13.5-10.7-22.6c-4.4-6.6-9.5-13.6-15.4-21.8l-5-6.8c-8-10.9-13.5-19.6-16.8-26.8c-3.7-8-4.5-13.9-2.3-17c2.5-3.5 9.3-2.9 17.4 1.7c9.9 5.5 19.7 16 26.9 28.7c8.6 15.5 10.2 31.4 10 42c0 5.7-0.6 10.6-1 14.5c-0.4 4-0.7 6.9-0.4 8.8c0 0 0 .1 0 .2c1.4 7.5 2.4 15.1 3 22.8c1.4 20-0.2 40.1-4.7 59.7c1.6-3.7 3.3-7.3 4.9-11c8.2-18.8 15.3-37.9 21.4-57.5c3.2-44.1-4.5-89.8-21.5-130.9c-0.7-1.6-1.4-3.2-2.2-4.6c-1.4-2.2-3-4.5-4.8-7c-1.7-2.3-3.5-4.7-5.4-6.9l-6.6-7c-5.3-5.7-11.1-11.3-17.9-17.9c-4.7-4.5-9.7-9.3-15-14.7c-12.7-12.9-21.6-22.7-27-31.6c-6.4-9.2-8.6-17.3-6.1-22.1c2.6-5 11.8-5.7 23.4-1.7c13.9 5.2 28.6 16.6 40.5 31.4c11.2 14.2 18.5 31.8 21.7 52.1c1 7.1 1.5 13.3 1.9 18.4c.4 5.7 .8 10.2 1.7 12.7h-0.1c14.8 37 22.1 76.5 21.3 116.4c1.4-5.1 2.7-10.1 3.9-15.1c.1-0.5 .2-1 .4-1.5c.7-3.3 1.4-6.6 2.2-9.8c.3-1.8 .7-3.7 1.1-5.5c7.7-38.8 8.9-75.1 3.6-108.5c-2.7-8.7-6.9-17.1-11.2-25c-6.4-11.2-14-23.5-23-37.8l-3.9-6.3c-10.6-16.9-17.6-30.3-21.7-40.9c-4.7-12.1-5.3-20.8-1.8-25c4-4.9 13.8-3 25.1 4.6c13.8 9.2 27 25.6 36.2 45.1c11 23.4 11.9 46.7 10.6 62.2c-0.6 7.1-1.6 14.1-3 21.2c-0.3 1.7-0.6 3.3-0.8 4.8c4.5 32.1 3.3 66.6-3.6 103.4c8-17 17.7-33.2 28.9-48.3c3.2-4.4 5.9-9.6 9-15.6c1.1-2.2 2.3-4.5 3.5-6.9c5.5-10.9 12.6-21 21.1-29.9c10.9-11.4 21.3-15.8 26.5-17.4c7.4-2 12.8-1 14.4 2.6c3.4 8.1-13.3 27.1-28.6 41c-8.4 7.4-17.7 13.6-27.8 18.4l-4.4 2.2c-5.6 2.7-9.9 5-11.7 7c-13.3 18-24.4 37.4-33.1 57.9c-3.1 14.5-7.1 29.2-12 44.4c2.3-3.6 4.8-7 7.3-10.1c3.4-4.5 7.1-8.6 11.2-12.5c2.6-2.7 5-5.5 7.3-8.4c1.9-2.4 3.9-4.8 6.2-7.4c6.3-7.5 14.2-13.7 23-18c11-5.5 20.3-5.4 24.8-4.9c6.3 1 10 3.5 10.4 6.8c.7 8.1-21.9 18.1-31.6 22c-7.9 3.2-16.2 5.5-24.6 6.9c-1.5 .4-2.9 .7-4.3 1c-1.8 .4-3.4 .8-4.8 1.2c-1.9 .5-3.6 1.3-5.2 2.4c-4 3.9-7.7 8-11 12.4c-4.2 5.2-7.9 10.7-11.2 16.5c-5 14.7-10.8 29.6-17.3 44.9c-6.2 14.3-12.8 28.4-19.7 42.4c7.9-11.1 16.4-21.7 25.5-31.7c6.7-7.5 13.8-14.5 21.3-21.2h.1c1.9-1.8 3.8-3.6 5.5-5.6c1.8-1.9 3.7-4 5.8-6.4l6.2-7.5l6.8-7.7c4.9-5.9 11.2-11.4 17.3-16.8c6.1-4.6 14.4-10.9 24.2-15.3c9.3-4.8 18.4-6.7 25.2-8c6.6-0.9 13.3-0.9 19.9 0c11.2 2.4 17.9 7.2 18.2 13.2c.4 7-8.8 13.9-16.6 18.4c-10 6.5-23.8 12.3-39.8 19.1l-0.6 .3c-15.8 6.6-30.2 9.4-43 11.9l-5.8 1.2c-9.6 1.9-18 3.6-21.2 6.3l-0.1 .1l-0.2 .2c-7.4 6.5-14.3 13.4-20.9 20.6c-14.9 16.7-28.3 34.6-40 53.7c-3.8 7.5-7.6 14.9-11.4 22.3c-2.2 4.4-4.5 8.9-6.7 13.3c9.8-11.2 21.2-21 33.7-29.1c7.1-4.7 14.6-8.8 22.4-12.2v-0.1c5.4-2.6 10.7-5.6 15.8-9c3.5-2.2 7.2-4.6 11.3-6.9c9.8-5.6 23.4-12.3 41.9-14.8c19.8-2.6 33.1 1.9 39.3 4.8c9 4.2 14.1 10.1 13.4 15.4c-0.7 6-10 10-17.6 12.2c-9.7 2.9-23.2 4.9-39 5.9c-15.2 1-28.1-1-39.5-2.7l-1-0.2c-9.7-1.6-18.9-3-23-1.7c-25.6 11.4-47.8 29.2-64.5 51.7c-8.9 17.8-17.7 35.9-25.9 54.3c10.5-13.3 23.2-24.5 37.7-33.2c2.4-1.5 4.7-3.2 6.9-5l.2-0.2c2.4-2 4.8-4.1 7.7-6.3c6.9-5.7 14.9-10 23.5-12.6c10.9-3.4 19.5-1.8 23.7-0.6c5.6 2 8.9 5.2 8.7 8.3c-0.5 5.3-11.3 10.3-32 15c-8.8 2.1-16.7 2.2-24 2.2h-3.1c-4.6 0-8.5 0-10.4 .9c-16.3 9.7-30.5 22.7-41.7 38.1c-2.8 6.4-5.6 12.9-8.2 19.4c-13.5 33.8-22.7 66.6-27.7 97.9c.4-1 .9-2.1 1.4-3c4.5-9 10.4-17.2 17.5-24.2c13.8-13.6 30-21.7 46.8-29.5c5.7-2.6 11.4-5.1 17.1-7.6c3.7-1.7 7.5-3.4 11.3-5c9.7-4.5 18.8-12.3 29.4-22.7c5.3-5.2 10.9-10.9 16.9-17.1c6-6.2 12.5-12.8 19.7-20c14.1-14.1 25.6-23.7 34.9-29.4c10.6-6.4 18.3-7.7 22.3-3.7c4.3 4.4 3.3 16.3-2.7 29.8c-7.2 16.7-20.5 33.5-36.6 46.2c-15.1 11.8-32.9 18.4-53 19.7c-6.1 .4-11.5 .3-16.2 .3c-6.2-0.1-11.1-0.2-13.7 1h-0.1c-3.7 1.6-7.3 3.2-11 4.8c-5.6 2.5-11.3 5-17 7.6c-16.4 7.6-32.3 15.6-45.7 28.8c-6.8 6.7-12.5 14.5-16.8 23.1c-2.7 5.6-5 11.3-6.8 17.3c-4.2 36.2-2.4 70.1 5.4 100.7l-5.8 2c-12.4-48.6-10-105 6.6-165.5c6.3-32.3 8.3-65.2 5.7-98c-1-13.3-2.9-26.5-5.5-39.6c-3-12.6-9.5-24.4-16.2-35.3c-4.9-7.8-10.2-16-16.4-25.3c-4.6-6.9-9.5-14.4-14.7-22.5c-11.5-17.8-19.7-33-24.4-45.3c-4.8-13.8-5.4-23.4-1.5-28Z" fill="#98a4ac"/><path class="cls-5" d="M3797.6 1474.6c-4.9-7.5-19.3-6.8-36.6 1.9c-20.9 10.4-42.4 30.8-59.1 56.1c-15.7 24-25.2 53.5-27.5 85.2c-0.9 11.5-0.8 21.6-0.7 29.7c.1 8.5 .2 15.3-0.9 19.2c0 .1-0.1 .2-0.1 .3h.1c-4.7 15.4-8.6 31-11.6 46.7c-5.8 30.9-8.7 62.3-8.4 93.8c-2.7-12.5-5.8-25.1-9.2-37.9c-5.5-19.9-11.7-39.6-18.2-59.2c-5-28.5-6.5-57.4-4.4-86.3c1.2-15.4 3.4-30.7 6.7-45.8c3-11.2 9-23 19.1-38.2c8.5-12.6 18.6-26.1 30.3-41.8l7.2-9.6c14.7-19.5 24.8-35.2 31-48c7-14.4 8.7-25 4.8-30.8c-4.4-6.5-16.8-5.6-31.7 2.4c-18 9.8-36.1 28.6-49.4 51.5c-16 27.9-19.3 56.8-19.1 76c.1 8.9 .6 17.7 1.6 26.5c.7 6.9 1.3 12.4 .7 15.7c0 .1 0 .2-0.1 .3h.2c-2.8 13.7-4.7 27.5-5.7 41.4c-1.5 21.4-1.2 42.8 1.2 64.2c-6.9-19.7-14-39.2-21.2-58.4c-8.3-26.3-11.4-54-9-81.5c.3-3.3 1-6.5 2.1-9.6c1.2-4.1 2.8-8.1 4.7-11.9c1.9-4.4 4.2-9.2 6.6-14.2c2.2-4.7 4.6-9.7 7.2-15.3c6.1-13.4 15.3-36.9 8.9-42.9c-2.8-2.3-8.4-0.1-14.7 5.9c-7.4 7.1-14.1 18.4-18.3 30.8c-4 12.3-4.9 25.5-2.8 38.3c.7 4.5 1.7 8.5 2.4 11.7c.9 3.8 1.6 6.8 1.5 8.6c-1.5 19.7-0.3 39.5 3.5 58.9c-9.3-25.1-18.7-50.6-27.4-76.4c-6.6-32.5-6.9-66-0.9-98.6c1.9-10.3 4.5-20.5 7.7-30.5c3-8.4 8.1-16.7 17.3-27.4c6.6-7.8 14.3-16 23.2-25.6l7.6-8c11.9-12.6 20.3-23 25.7-31.8c6-9.7 8-17.3 5.5-21.8c-2.7-5-11.8-5.5-23-1c-13.7 5.4-28 17.2-39.2 32.5c-13.5 18.5-17.9 39-19.2 52.8c-0.8 7.5-0.8 13.9-0.8 19.1c0 5.2 0 9.2-0.7 11.5c0 .1-0.1 .2-0.1 .2h.1c-3 9.6-5.4 19.4-7.3 29.2c-4.7 26-5.6 52.5-2.5 78.7c-1.7-5-3.3-10.1-4.9-15.2c-7.9-25.9-14.4-52.2-19.5-78.8c2.2-58.2 18.9-116.3 47-166.7c1.2-2 2.4-3.9 3.6-5.7c2.2-2.6 4.5-5.3 7.3-8.2c2.6-2.7 5.3-5.4 8.1-8l9.5-7.8c7.7-6.4 16.2-12.7 26-20c6.8-5 14-10.4 21.7-16.3c18.4-14.5 31.4-25.6 39.8-36.2c9.6-10.9 13.6-21 11.1-27.7c-2.7-7.1-14.5-9.7-30.2-6.6c-18.9 4.2-39.8 16.3-57.4 33.3c-16.6 16.6-28.7 38.1-35.8 64c-2.4 9-3.9 17.1-5.2 23.6c-1.4 7.4-2.5 13.2-4 16.3c-24.8 45.7-40 96-44.7 147.8c-1.1-6.9-2-13.7-2.9-20.4c-0.1-0.7-0.2-1.3-0.2-2c-0.6-4.5-1-8.9-1.5-13.3c-0.2-2.4-0.4-4.8-0.6-7.3c-4.4-52-0.7-99.6 11.1-142.1c4.7-10.9 11.4-21 18.2-30.5c9.9-13.5 21.7-28.1 35.4-45l6-7.5c16.2-20.1 27.4-36.3 34.2-49.3c7.8-14.9 9.9-26.1 6-32.3c-4.5-7-17.6-6.5-33.5 1.3c-19.3 9.5-38.8 28.5-53.7 52.1c-17.7 28.4-22.2 58.7-22.8 79.1c-0.3 9.4 0 18.8 .7 28.2c.2 2.3 .3 4.5 .4 6.5c-10.6 41-14 86.2-10.3 135.4c-8-23.7-18.3-46.6-30.6-68.3h.1c0 0 0 0 0-0.1c-3.7-6.3-6.4-13.6-9.5-22c-1.1-3.1-2.3-6.3-3.6-9.6c-5.6-15.4-13.4-29.9-23.1-43c-12.6-17-25.5-24.6-32-27.6c-9.4-4-16.6-3.8-19.3 .7c-5.5 9.9 13.5 37.8 31.4 58.7c9.9 11.2 21.2 21 33.6 29.1c1.9 1.3 3.7 2.6 5.5 3.7c6.8 4.7 12.1 8.3 14.1 11.4c14.7 25.8 26.4 53.1 34.8 81.6c2 19.4 5 39.5 9.2 60.1c-2.5-5.1-5.2-10-8-14.5c-3.8-6.4-8.1-12.6-12.8-18.4c-3.1-3.9-5.8-8.1-8.4-12.3c-2.1-3.5-4.3-7-7-10.8c-7.2-11-16.5-20.5-27.4-27.8c-13.6-9.2-25.6-10.9-31.7-11c-8.2 .2-13.5 2.7-14.5 7c-2 10.4 25.9 27.6 38 34.5c11.3 6.6 21.6 10.4 31.1 13.6c1.9 .8 3.8 1.5 5.5 2.1c2.3 .9 4.4 1.7 6.2 2.5c2.2 1.1 5 2.6 6.3 4c4.6 5.8 8.9 11.9 12.6 18.2c4.7 7.6 8.7 15.5 12.2 23.7c4.4 20 9.7 40.6 16.1 61.7c6 19.8 12.5 39.4 19.4 58.9c-8.6-15.9-18.2-31.3-28.6-46c-7.7-11-15.9-21.5-24.7-31.6h-0.1c-2.3-2.7-4.4-5.5-6.3-8.4c-2.2-2.8-4.4-5.9-6.7-9.5l-6.9-10.8l-7.8-11.4c-5.6-8.6-13-17-20.2-25.1c-7.2-7.2-17.1-16.9-29.3-24.4c-11.4-8-23-12.2-31.7-15.2c-8.4-2.4-17.2-3.6-25.9-3.7c-15 1-24.4 6-25.7 13.8c-1.5 9 9.5 19.8 19 27.2c12.1 10.2 29.2 20.4 49.1 32.2l.7 .5c19.6 11.6 38.1 18 54.4 23.5l7.4 2.6c12.3 4.3 22.9 8 26.8 12.3l.1 .1l.2 .2c8.6 9.9 16.7 20.2 24.2 30.9c16 22.7 30.7 48.3 44.4 77.3c3.8 10.5 7.7 20.9 11.5 31.2c2.3 6.2 4.6 12.5 7 18.7c-11.3-16.5-24.7-31.4-39.8-44.3c-8.6-7.4-17.8-14.1-27.4-20v-0.1c-6.3-4-12.3-9-19.2-14.7c-4.3-3.5-8.8-7.3-13.8-11.1c-11.9-9.1-28.7-20.4-52.5-27.1c-25.4-7.1-43.4-3.7-52-1c-12.2 3.8-19.8 10.6-19.7 17.5c.2 8.1 11.6 14.9 21.2 19.3c12.3 5.5 29.5 10.6 49.9 14.9c19.7 4.2 36.8 3.9 51.9 3.8h1.4c12.9-0.3 25-0.5 30.3 2.1c31.7 19.6 58.1 46.9 76.5 79.4c9.1 24.8 17.9 50 25.9 75.5c-11.7-19.2-26.7-36.2-44.3-50.2v-0.1l-0.1-0.1c-2.9-2.4-5.6-5.1-8.3-7.8l-0.2-0.3c-2.8-3.1-5.7-6.3-9.1-9.6c-8.2-8.8-17.9-15.9-28.8-20.9c-13.8-6.5-25.2-6-30.8-5.1c-7.7 1.6-12.3 5-12.6 9.1c-0.1 7 13.2 15.6 39.5 25.5c11.2 4.4 21.5 6 31 7.3l4.1 .6c6 .8 11.1 1.6 13.5 3.1c19.9 15.7 36.4 35.2 48.7 57.4c2.8 9 5.5 17.9 8 26.9c12.6 46.5 19.9 91 21.9 132.8c-0.5-1.5-0.9-2.9-1.4-4.3c-4.6-12.5-11.1-24.3-19.4-34.8c-16-20.2-35.9-33.9-56.7-47.2c-7-4.4-14.1-8.7-21.2-13.1c-4.6-2.8-9.3-5.7-14-8.6c-12-7.6-22.7-19.5-35-35c-6.2-7.8-12.6-16.2-19.5-25.4c-7-9.2-14.4-19.1-22.8-29.7c-16.4-21-29.9-35.7-41.3-44.9c-12.9-10.3-22.7-13.4-28.5-8.9c-6.3 4.8-6.6 20.6-0.8 39.3c6.9 23 21.9 47.5 41 67c18 18.2 40.2 30.1 66.2 35.6c7.9 1.6 14.9 2.5 21 3.3c8.1 1 14.5 1.9 17.7 3.9h.2c4.5 2.8 9.1 5.7 13.5 8.4c7.1 4.3 14.1 8.6 21.1 13c20.4 13.1 40 26.4 55.5 46.1c7.9 10 14.1 21.2 18.5 33.2c2.8 7.7 4.9 15.7 6.4 23.8c.2 48-7 91.8-21.6 130.3l7.2 3.6c23.2-61 28.3-135 15.4-217c-3.6-43-1.3-86.3 6.8-128.7c3.3-17.2 7.6-34.1 12.9-50.7c5.8-15.8 16-30 26.3-42.9c7.5-9.3 15.6-18.9 25.1-30c7-8.2 14.4-17 22.4-26.6c17.6-21 30.5-39.4 38.3-54.5c8.7-16.6 10.9-29 6.4-35.8Z" fill="#cadae5"/><path class="cls-42" d="M3827.3 2650.6h-244.9c-19.7 0-36.1-15.1-37.7-34.8l-55.8-692h431.8l-55.8 692c-1.5 19.7-17.9 34.8-37.6 34.8Z" fill="#7d98ae"/><path class="cls-5" d="M3495.3 2002.6h419.1l-2 25h-415.1l-2-25Z" fill="#cadae5"/><path class="cls-5" d="M3908.5 2075.7l2-24.9h-411.3l2 24.9h407.3Z" fill="#cadae5"/><rect class="cls-20" width="7.8" height="193.2" fill="#327f94" transform="translate(771.3,-699.8) rotate(21.6) translate(2213.6,1572.5)"/><path class="cls-16" d="M2174 1676l-6.5 1.1c-0.1 0-0.1 0-0.2 0c0 0 0-0.1 0-0.1l-11.6-68c0-0.1 0-0.1 .1-0.2c0 0 0 0 .1 0l6.5-1.2c.1 0 .1 0 .2 .1c0 0 0 0 0 .1l11.6 67.9c0 .1 0 .2-0.1 .2c0 .1 0 .1-0.1 .1Z" fill="#27606d"/><path class="cls-21" d="M2174 1676l-6.5 1.1c-0.1 0-0.1 0-0.2 0c0 0 0-0.1 0-0.1l-11.6-68c0-0.1 0-0.1 .1-0.2c0 0 0 0 .1 0l6.5-1.2c.1 0 .1 0 .2 .1c0 0 0 0 0 .1l11.6 67.9c0 .1 0 .2-0.1 .2c0 .1 0 .1-0.1 .1Z" stroke="#27606d" fill="none" stroke-miterlimit="10"/><path class="cls-20" d="M2189.5 1748.8l-12.7 2.2c-0.1 0-0.2 0-0.3-0.1c-0.1 0-0.1-0.1-0.1-0.2l-22.5-132.5c-0.1-0.2 .1-0.4 .3-0.5l12.7-2.1c.2 0 .4 .1 .4 .3l22.5 132.5c0 .1 0 .2-0.1 .3c0 .1-0.1 .1-0.2 .1Z" fill="#327f94"/><rect x="2149" y="1654.4" class="cls-5" width="89.3" height="111.3" fill="#cadae5"/><rect x="2146.1" y="1758.3" class="cls-41" width="94.9" height="12.5" rx=".5" fill="#98a4ac"/><rect x="2146.1" y="1648.9" class="cls-41" width="94.9" height="12.5" rx=".5" fill="#98a4ac"/><path class="cls-17" d="M1362.2 2666.2c0 0-15.5 58.5-4.8 74.7c2.9 4.4-58.4 37.5-77.4 27.2c-0.7-8.7 11.3-20.5 12.2-37.6c1.6-30.5-1.2-70-1.6-79.2" fill="#efb58e"/><path class="cls-17" d="M1533.5 2678.8c0 0-10 66 5.5 72.8c3.3 1.4-65.5 22.4-81.3 21.7c-4.1-0.2-1.7-4 2.3-9c9.4-11.6 13.4-25.8 11.3-39.8c-3.4-22.7-8.8-49.1-9.2-59.9" fill="#efb58e"/><path class="cls-20" d="M1559.6 1544.6c0 0 108.4 480.6 83.5 665.4c-9.7 71.2-83.5 463.7-83.5 463.7l-66.6 13.2c-18.6 0-54.5-13.4-53.7-31.9c4.4-89.4 25-344.9 62.3-435.7c22.1-53.6-101.5-384.3-101.5-384.3l-56.1-286.4Z" fill="#327f94"/><path class="cls-16" d="M1559.6 1544.6l-215.6 4l56.1 286.4c0 0 22.2 59.3 46 131.8c39.5-35.7 106.5-102.2 160.1-184.8c-22.7-131.5-46.6-237.4-46.6-237.4Z" fill="#27606d"/><path class="cls-43" d="M1212.6 1592.2l179.2-16c0 0 69.6 144.9 59.2 212.2c-10.5 67.2-40.6 460.2-40.6 460.2l-21.4 451.1l-60.4 10c-24.4-4-54.1-6-56-30.5l-21.5-277.2c-3.3-41.2 0-82.7 9.7-122.9c0 0 5-15.2 5-20.5c-1-167.1-108.9-426.6-53.2-666.4Z" fill="#42b6bc"/><path class="cls-44" d="M1674.4 2819.2l.5-0.1c-1.9-29.4-9-44.6-62-45.1c-19-0.2-56.3-9.5-62.3-25c0-0.1 0-0.1-0.1-0.2c-2.7-6.9-14-7.7-18.4-1.5c-7.5 10.3-15.3 16.9-30.4 17.1c-10.5 .1-21-0.9-31.4-0.8c-28.3 .2-24.4 35.3-20.2 50.5c1.4 5 15.3 6.1 19.7 6.8c13.5 2 27.2 3 40.9 3.8c34.1 2 90.2-0.7 124.4-1.7c13.2-0.4 26.3-1.6 39.3-3.8Z" fill="#121c21"/><path class="cls-45" d="M1394.1 1581.1l-71 6.3c16 16.1 25 37.8 25 60.4c0 49-41.7 88.7-93.1 88.7c-0.5 0-1 0-1.5 0c-1.6 197.6 65 396.5 39.5 521.2c-32.6 159.5 1.4 424.7 1.4 424.7c1.2 15.5 48.4 18.8 63.5 22.5l31.1-5.1l21.4-451.2c0 0 30.1-393 40.6-460.2c9.3-60-44.9-181.6-56.9-207.3Z" opacity=".7" fill="#327f94"/><path class="cls-44" d="M1281.1 2768.1c2.9-1 6-1.6 9-1.9c9.3-1.2 17-3.7 23.3-9.3c7.9-7.1 15.5-12.3 27.5-14.5c14.4-2.7 40-6 46 8.3l12.9 30.6l7.7 .6c36.7 0 43.3 35.7 43.8 48c-0.2 0-0.5 0-0.8 0c-5.3 2.3-43 4.2-88.7 4.2c-49.4 0-89.4-2.2-89.4-4.8c0-0.1-0.1-1.2-0.2-2.7c-2.6-13.5 .2-55.1 8.9-58.5Z" fill="#121c21"/><path class="cls-1" d="M1544.5 1053.8c48.3 54 88 180.4 68.7 303c-1.8 11.7 46.7 79.7 56.1 116l-101.2 50.1c0 0-12.8-37.5-31.6-117.1c-18.9-79.6 8-352 8-352Z" fill="#fff"/><path class="cls-46" d="M1599.9 1479.6c-26.8-7-38.7-79-37.3-93.7c5.8-59.6 45.5-135.6 19.5-251.1c-5.6-25-17.3-43.5-33.1-56.9c-7.7 67.3-28 262.4-12.5 327.9c18.8 79.6 31.6 117.1 31.6 117.1l101.2-50.1c0 0-42.6 13.9-69.4 6.8Z" fill="#efeeed"/><path class="cls-1" d="M1568.1 1522.9c10.2 28.6 27.6 38.9 31 40.7c.4 .2 .9 .2 1.2 0l113-49.4c.7-0.2 1-0.9 .9-1.6c-1.4-6.4-8.9-38.2-28.6-56.4c-0.4-0.5-1.2-0.6-1.7-0.2l-115.1 65.1c-0.7 .3-0.9 1.1-0.7 1.8Z" fill="#fff"/><path class="cls-22" d="M1567.8 1489.1c-12.5-48.3-34.3-68.5-17-123.1c22.8-72.1 46.5-137.2 31.3-231.2c-15.1-94.1-81.2-115.6-182.4-146.9c-44.6-13.8-122.5 30.4-172 86.4c-41.1 46.5-70.2 118.5-71 209.2c-1.3 145.4 39.2 182.9 27.6 275.4c-5.8 46.6 7 76.2 29.9 80.5c23 4.3 116.1-21.3 205-22.2c116.1-1.1 160.6-81.5 148.6-128.1Z" fill="#f77f0f"/><path class="cls-23" d="M1566.2 1316.9c-25 33.2-52 64.7-73.3 79.1c-55.3 37.5-168.5 70.3-168.5 70.3c0 0 134.1 29.2 233.8-6.9c-10.9-29.7-20.7-51.4-7.4-93.4c5.2-16.6 10.5-32.8 15.4-49.1Z" fill="#d86d0e"/><path class="cls-47" d="M1308.6 1089c40.2-48 99.3-55.4 159.5-79.3c0 0-75-21.4-87.7-21.5c-46.8-0.1-103.2 30.2-152.6 86.1c-41.1 46.6-70.3 118.6-71 209.3c-1.3 145.4 39.2 182.9 27.6 275.3c-5.8 46.6 7 76.3 29.9 80.6c15.5 2.9 62.8-7.8 119.2-15.3c-32.8-11.4-14.5-26.9-23-57.9c-8.5-31.1-70.8-49.5-39.9-128.7c24.9-63.7 10.5-131.7 57.8-197c35.9-49.8-51.3-114-19.8-151.6Z" fill="#f9993f"/><path class="cls-41" d="M1704.2 1644.7l-141.9 235.5c-4.3 7.3-13.4 10.2-21.1 6.8c-26-11.1-88.5-41.6-183.9-112.1c-6.9-5.1-8.9-14.5-4.6-22l135.8-237.9c2.2-4 6-6.9 10.5-8c4.4-1.1 9.1-0.4 13 2c28.3 17.3 95.3 58.2 186.4 112.4c8 4.8 10.6 15.2 5.8 23.3Z" fill="#98a4ac"/><path class="cls-5" d="M1697 1643.3l-143.5 238.1c-3.9 6.6-12 9.2-19 6.2c-25.3-10.6-88.7-41.2-186.4-113.5c-6.3-4.6-8.1-13.2-4.2-19.9l137.3-240.6c2.1-3.6 5.5-6.3 9.5-7.3c4-1 8.3-0.4 11.8 1.8c27.6 16.9 95.9 58.5 189.2 114.1c3.5 2.1 6 5.5 7 9.4c1 4 .4 8.2-1.7 11.7Z" fill="#cadae5"/><path class="cls-1" d="M1222 1460.1c-4.2-18.3-5.8-39.5-5.8-39.5c0 0 66-127 101.9-167.8c36-40.9 76.5-105.8 40.8-163.8c-35.7-57.9-97.3-66.5-162 19.5c-58.9 78.4-133.3 246-129.1 289.7c4.2 43.8 35.2 97 35.2 97Z" fill="#fff"/><path class="cls-2" d="M1358.9 1089c-7.7-12.6-16.8-22.9-26.8-30.3c-26.5 3.5-56 23.1-86.1 63.1c-58.9 78.4-133.4 246-129.2 289.8c2.5 25.1 13.7 53.3 22.9 72.8l82.3-24.3c-4.2-18.3-5.8-39.5-5.8-39.5c0 0 66-127 101.9-167.8c36-40.9 76.5-105.8 40.8-163.8Z" fill="#f2f2f2"/><path class="cls-24" d="M1229.3 1543.8c-18.9 8-52.3 15.7-98.3 2.7h-0.1c23.4 44.8 90.5 125.4 129.1 160.8c38.7 35.3 67.5-29.5 67.5-29.5Z" fill="#ffc39a"/><path class="cls-46" d="M1103.1 1495.2l115-57.7l4 22.6l-119 35.1Z" fill="#efeeed"/><path class="cls-1" d="M1103.1 1495.2l133.1-40.7l10.5 73.5c.5 3.6-1.1 7.1-4.2 9c-15.1 9.4-64.4 32.6-141.6-1.3c-3.3-1.5-5.5-4.7-5.5-8.3c-0.1-8.3 .8-23.4 7.7-32.2Z" fill="#fff"/><path class="cls-24" d="M1321.9 1669.2c7.1-2.3 27.4 .1 44.3-0.5c9.5-0.4 20.4 2 27.2 3.7c0 0-17.5 23-14.3 25.4c12.5 9.7 37.9 12.9 58.2 19.1c28.5 8.6 40.5 32.4 4.7 24.7c-35.8-7.8-56.2-16.7-56.2-16.7c0 0 43.7 16.4 57 19.1c23.5 4.7 36.6 22.9 14.9 24.9c-10.2 .9-21.8-2.4-35.5-6.7c-16-5.1-33.4-9.9-45.1-15.9c0 0 46 20.8 56.4 23.5c14.4 3.7 23.1 24-8 18.1c-8.8-1.7-16.8-4.4-27.5-9.1c-10.4-4.6-28.2-13.2-32.3-15.3c0 0 21.8 13.9 29.7 17.7c7.9 3.8 25.3 6.1 20.7 15.9c-4.6 9.8-51.5-8.6-75-27c-23.5-18.5-64-51.9-71.8-55" fill="#ffc39a"/><path class="cls-24" d="M1600.4 1563.6c47.1 37.5 146.9 79.1 151.7 90.4c4.8 11.3-10.3 31-7 53.6c3.2 22.6-6.7 39.8 9.7 40.9c16.4 1.1 26.3-29 26.3-29c0 0 13.2 20 14.1 29.1c.7 7.2-8.8 31.8-8.8 31.8c0 0-18.6 11.2-16.4 15.5c2.2 4.3 37.1-0.9 50.3-15.4c10.8-12 17.2-34.5 19.1-42.1c.4-1.7 .5-3.4 .3-5.1c-1.8-12.7-10.6-70.1-20.2-82.6c-10.9-14-121.7-129.6-121.7-129.6Z" fill="#ffc39a"/><path class="cls-16" d="M1813 1703.4l-7.7-5.1c-0.1 0-0.1-0.1-0.1-0.1c0-0.1 0-0.1 .1-0.2l52.8-79.4c.1-0.1 .2-0.1 .3 0l7.7 5.1c.1 .1 .1 .2 0 .3l-52.8 79.4c-0.1 .1-0.2 .1-0.3 0Z" fill="#27606d"/><path class="cls-21" d="M1813 1703.4l-7.7-5.1c-0.1 0-0.1-0.1-0.1-0.1c0-0.1 0-0.1 .1-0.2l52.8-79.4c.1-0.1 .2-0.1 .3 0l7.7 5.1c.1 .1 .1 .2 0 .3l-52.8 79.4c-0.1 .1-0.2 .1-0.3 0Z" stroke="#27606d" fill="none" stroke-miterlimit="10"/><path class="cls-20" d="M1759.6 1791.4l-28 26.3l13.1-36.2c-0.2-0.2-0.3-0.5-0.1-0.7l103-154.7c.1-0.2 .4-0.2 .7-0.1l14.8 9.9c.1 .1 .2 .2 .2 .3c.1 .1 0 .3 0 .4l-103 154.6c-0.2 .2-0.5 .3-0.7 .2Z" fill="#327f94"/><path class="cls-17" d="M1473.1 958.2c0 0-18.7 44-8 67.7c-6.3 17.1-63.1 17.9-115.8-27.6c14-12.8 24-24.7 44.7-55.4c-9-12.5 79.1 15.3 79.1 15.3Z" fill="#efb58e"/><path class="cls-25" d="M1396.5 939.7c-1 .9-1.9 1.9-2.7 2.9l.2 .3c-2.3 3.4-4.4 6.5-6.4 9.5c-1.9 4.2-2.9 8.9-2.9 13.5c0 24 26 43.4 58.2 43.4c6.4 .1 12.7-0.7 19-2.3c.2-22.8 11.2-48.8 11.2-48.8c0 0-62-19.6-76.6-18.5Z" fill="#ec996b"/><path class="cls-24" d="M1460.8 998.3c4.6 .4 16 2.1 37.4 2.7c22.8 .7 39.9-17.7 47.3-40.3c5.9-17.9 28-112 28-112c35.8-111.7-127.5-126.8-155.8-118.1c-28.4 8.8-41.5 43.7-52.5 77.9c-4 12.3-3.9 33.2-2 55.2c2 22.7 7.1 54.4 10 71.3c1.4 8.2 5.5 15.6 11.7 21.1c21.9 19.5 47.8 33.8 75.9 42.2Z" fill="#ffc39a"/><path class="cls-48" d="M1491.5 992.4c-28.1-8.4-54-22.8-75.9-42.2c-6.1-5.5-10.2-13-11.6-21.1c-2.9-16.9-8.1-48.6-10.1-71.3c-1.8-22-2-42.9 2-55.2c9.8-30.4 21.3-61.4 43.8-74c-9.8-0.1-17.5 .7-21.9 2c-28.5 8.8-41.6 43.8-52.6 77.9c-4 12.3-3.9 33.3-2 55.2c2 22.8 7.1 54.5 10 71.3c1.4 8.2 5.5 15.6 11.7 21.1c21.9 19.5 47.8 33.9 75.9 42.2c4.7 .4 16 2.2 37.5 2.7c7.9 .3 15.8-1.9 22.6-6.2c-16.3-0.7-25.3-2.1-29.4-2.4Z" fill="#ffdcc5"/><path d="M1549.3 883.8c-0.3 5-3.5 8.9-7.2 8.6c-3.7-0.2-6.4-4.5-6-9.5c.4-5.1 3.6-8.9 7.2-8.7c3.7 .2 6.4 4.5 6 9.6Z"/><path d="M1476.2 876.2c-0.4 6-4.2 10.6-8.6 10.3c-4.3-0.3-7.5-5.4-7.1-11.3c.4-6 4.2-10.6 8.6-10.3c4.3 .3 7.5 5.4 7.1 11.3Z"/><path class="cls-13" d="M1431.5 862.2c0 0 38.9-20.5 54.5-5.4l-0.9-13.5c0 0-49.1-6.5-53.6 18.9Z" fill="#42210b"/><path class="cls-13" d="M1530.5 859.7c0 0 23.6-0.4 35.3 14.5c0 0-1.8-30.6-34.2-25.4Z" fill="#42210b"/><path class="cls-25" d="M1533.5 921c0 2.2-0.3 4.6-2.1 5.9c-1.2 .7-2.6 1-4 .9c-9.9 .3-20.4 .6-29.1-4.1c-0.7-4.7 .9-9.5 2.6-14c2.4-6.4 5.3-39.8 14.9-35.5c10 4.4 17.9 38.1 17.7 46.8Z" fill="#ec996b"/><path d="M1467.5 945.7c1.1 .1 2.1 .3 3.2 .5l3.2 .5l6.3 1c1 .2 2.1 .3 3.1 .5l3.2 .4c1 .2 2.1 .3 3.1 .5l3.2 .3l3.1 .3c1 .1 2.2 .2 3.2 .3l3.2 .2c1 0 2.1 .1 3.2 .2l6.3 .3l3.3 .2c1 0 2.1 0 3.2 .1v.2c-17.2 2.1-34.5 .2-50.9-5.4Z"/><path class="cls-13" d="M1334 744.1c12.5-47.2 54.5-38.7 54.5-38.7c20-28.3 67.5-50 118.5-42.3c69.2 10.4 17.9 121.3-42.3 111c-2.9-0.5-5.8 .2-8.2 1.9c-2.3 1.7-3.9 4.2-4.4 7.1c-3.3 21.4-17.1 44.7-46.4 49.7c-11.1 1.9-20.1 10.1-23.1 21l-14.6 53.5c0 0-50.2-102-34-163.2Z" fill="#42210b"/><path class="cls-17" d="M1384.7 860.2c-3.4-5.8-8.9-9.9-15.3-11.5c-6.5-1.5-13.4 .1-18.5 4.4c-5.8 5-8.2 12.7-10.2 20.1c-2.3 8.8 3.2 19.7 9 26.7c4 4.8 21.6 9.7 26 5.9" fill="#efb58e"/><path class="cls-25" d="M1365.7 879.1c-1.2 6.6-4.6 11.5-7.4 10.9c-2.8-0.5-4-6.3-2.8-12.9c1.3-6.6 4.6-11.4 7.5-10.9c2.8 .6 4 6.3 2.7 12.9Z" fill="#ec996b"/><path class="cls-49" d="M1326.7 789c0 0 134-36.4 257.2-27c-2.8-165-270.7-151.1-257.2 27Z" fill-rule="evenodd" fill="#ffb500"/><path class="cls-50" d="M1442.7 647.5c-63.3 7.7-122.5 55.4-116 141.4c0 0 8.4-2.2 23-5.5c-5.2-74.9 39.4-120.6 93-135.9Z" fill="#fccb5b" fill-rule="evenodd"/><path class="cls-50" d="M1381.7 776.8c50.4-9.6 128.3-20.5 202.2-14.9c0-2-0.1-4-0.2-5.9c-79.2-2.5-159.2 11.5-202 20.8Z" fill="#fccb5b" fill-rule="evenodd"/><path class="cls-51" d="M1379.4 777.2c0 0 66.6 52.6 90.3 54.4c23.8 1.9 139.4 .9 151.2-14.7c11.7-15.5-37-55-37-55c-75.1-5.7-154.2 5.6-204.5 15.3Z" fill-rule="evenodd" fill="#ffd366"/><path class="cls-52" d="M1364.3 683c45.6-22.7 100.8 22.4 116.9 80c17-1.4 34.5-2.3 52.3-2.6c-0.9-167.2-153.4-136.1-169.2-77.4Z" fill-rule="evenodd" fill="#ffdb85"/><path class="cls-53" d="M1364.3 683c45.6-22.7 100.8 22.4 116.9 80l1.5-0.1h.2l1-0.1l.8-0.1h.1l3.2-0.2h.3h.5h.3h.2h.3h.3h.4h.3h.3h.4h.3h.5h.2h.4h.2h.3h.2c-4.5-19.2-18.4-63.8-52.6-88c-17-12.2-37.7-18.3-58.6-17.3c-8.8 7.1-15.2 16-17.9 25.8Z" fill-rule="evenodd" fill="#ce8046"/><path class="cls-54" d="M1505 744c6.7 .9 13.4-2.4 16.8-8.2c3.4-5.9 2.9-13.3-1.2-18.7c-4.2-5.4-11.1-7.8-17.7-6c-6.6 1.7-11.5 7.3-12.4 14c-1.2 9.2 5.3 17.7 14.5 18.9Z" fill-rule="evenodd" stroke-width="2px" stroke="#000" stroke-miterlimit="10" fill="#fff"/><path class="cls-5" d="M2926.7 1772.2h-389.6c-4.9 .1-9.1-3.7-9.4-8.6l-8.9-237.5c-0.1-2.5 .8-4.9 2.5-6.7c1.8-1.8 4.2-2.8 6.7-2.7h407.8c2.5-0.1 4.9 .9 6.6 2.7c1.8 1.8 2.7 4.2 2.6 6.7l-8.9 237.5c-0.3 4.9-4.5 8.7-9.4 8.6Z" fill="#cadae5"/><path class="cls-55" d="M3248.7 1771.9h-56.6c-6.3 0-11.7-4.5-12.9-10.6l-20.1-102.4c-0.7-3.8 .3-7.8 2.8-10.8c2.5-3.1 6.2-4.8 10.1-4.8h96.7c4 0 7.7 1.7 10.2 4.8c2.5 3 3.5 7 2.7 10.8l-20 102.4c-1.3 6.1-6.7 10.6-12.9 10.6Z" fill="#92a2ad"/><path class="cls-5" d="M3261.6 1761.3l20-102.4c.8-3.8-0.2-7.8-2.7-10.8c-2.5-3.1-6.2-4.8-10.2-4.8h-10.1l-18.5 128.6h8.5c6.3 0 11.7-4.5 12.9-10.6Z" fill="#cadae5"/><path class="cls-41" d="M3259.7 1755.5h-12c-3.9 .1-7.5-1.8-9.4-5.2c-2-3.3-2-7.4 0-10.7c1.9-3.3 5.5-5.3 9.4-5.1h12c4.6-0.1 8.6-3.3 9.6-7.9l6.9-34.2c.5-2.8-0.2-5.8-2.1-8.1c-1.8-2.3-4.6-3.6-7.5-3.6h-12.2c-3.8 .1-7.4-1.9-9.4-5.2c-1.9-3.3-1.9-7.4 0-10.7c2-3.3 5.6-5.3 9.4-5.2h12.2c9.2 0 18 4.2 23.9 11.4c5.8 7.1 8.1 16.6 6.3 25.6l-6.9 34.2c-3 14.4-15.6 24.7-30.2 24.7Z" fill="#98a4ac"/></g></symbol></defs><title>02</title><use width="4680" height="3120" xlink:href="#Symbol-2" transform="translate(450,312) scale(.2,.2) translate(-2340,-1560)"/><use width="4680" height="3120" xlink:href="#Symbol-3" transform="translate(450,312) scale(.2,.2) translate(-2340,-1560)" style="animation: 7.5s linear infinite both a0_o;"/></svg>